<svg width="34" height="34" viewBox="0 0 34 34" fill="none" xmlns="http://www.w3.org/2000/svg">
<path d="M27.3327 26.9997C28.2167 26.9997 29.0646 27.3509 29.6897 27.976C30.3148 28.6011 30.666 29.449 30.666 30.333C30.666 31.2171 30.3148 32.0649 29.6897 32.69C29.0646 33.3152 28.2167 33.6663 27.3327 33.6663C26.4486 33.6663 25.6008 33.3152 24.9757 32.69C24.3505 32.0649 23.9993 31.2171 23.9993 30.333C23.9993 28.483 25.4827 26.9997 27.3327 26.9997ZM0.666016 0.333008H6.11602L7.68268 3.66634H32.3327C32.7747 3.66634 33.1986 3.84194 33.5112 4.1545C33.8238 4.46706 33.9993 4.89098 33.9993 5.33301C33.9993 5.61634 33.916 5.89967 33.7993 6.16634L27.8327 16.9497C27.266 17.9663 26.166 18.6663 24.916 18.6663H12.4993L10.9993 21.383L10.9493 21.583C10.9493 21.6935 10.9932 21.7995 11.0714 21.8776C11.1495 21.9558 11.2555 21.9997 11.366 21.9997H30.666V25.333H10.666C9.78196 25.333 8.93411 24.9818 8.30899 24.3567C7.68387 23.7316 7.33268 22.8837 7.33268 21.9997C7.33268 21.4163 7.48268 20.8663 7.73268 20.3997L9.99935 16.3163L3.99935 3.66634H0.666016V0.333008ZM10.666 26.9997C11.5501 26.9997 12.3979 27.3509 13.023 27.976C13.6482 28.6011 13.9993 29.449 13.9993 30.333C13.9993 31.2171 13.6482 32.0649 13.023 32.69C12.3979 33.3152 11.5501 33.6663 10.666 33.6663C9.78196 33.6663 8.93411 33.3152 8.30899 32.69C7.68387 32.0649 7.33268 31.2171 7.33268 30.333C7.33268 28.483 8.81602 26.9997 10.666 26.9997ZM25.666 15.333L30.2993 6.99967H9.23268L13.166 15.333H25.666Z" fill="#FAFAFA"/>
</svg>
