<svg width="1200" height="384" viewBox="0 0 1200 384" fill="none" xmlns="http://www.w3.org/2000/svg">
<path d="M5.7762 336.346C5.7762 336.346 14.2221 337.514 19.5111 336.952C29.8866 335.849 35.2409 331.964 45.7292 331.116C51.1501 330.678 60.0936 331.957 60.0936 331.957L61.649 348.987C61.649 348.987 52.2743 346.885 47.2069 347.295C36.3651 348.171 31.462 352.765 21.0666 353.982C15.7847 354.6 7.33168 353.376 7.33168 353.376L5.7762 336.346Z" fill="#515BDA" fill-opacity="0.4"/>
<path d="M777.702 317.688C777.702 317.688 786.148 318.856 791.437 318.294C801.812 317.191 807.167 313.306 817.655 312.458C823.076 312.02 832.019 313.299 832.019 313.299L833.575 330.329C833.575 330.329 824.2 328.227 819.133 328.637C808.291 329.513 803.388 334.107 792.992 335.324C787.71 335.942 779.257 334.718 779.257 334.718L777.702 317.688Z" fill="#515BDA" fill-opacity="0.4"/>
<path d="M739.18 373.806C739.18 373.806 745.044 369.373 747.828 365.823C753.289 358.857 753.829 353.275 759.532 346.393C762.48 342.836 768.718 338.168 768.718 338.168L781.348 347.429C781.348 347.429 774.286 351.866 771.53 355.191C765.635 362.304 765.852 368.037 760.457 375.084C757.717 378.664 751.81 383.067 751.81 383.067L739.18 373.806Z" fill="#383F9B" fill-opacity="0.4"/>
<path opacity="0.79" d="M40.8593 12.4319C40.8593 12.4319 35.4964 17.7899 33.1715 21.8235C28.6105 29.7362 28.907 35.5593 24.0832 43.418C21.5899 47.4798 15.8774 53.1312 15.8774 53.1312L1.4541 45.2987C1.4541 45.2987 8.05042 39.774 10.381 35.977C15.3674 27.8534 14.2681 21.9777 18.7482 13.9909C21.0245 9.93285 26.436 4.59931 26.436 4.59931L40.8593 12.4319Z" fill="#383F9B" fill-opacity="0.4"/>
<path opacity="0.84" d="M174.664 155.172C174.664 155.172 183.896 158.541 190.032 159.188C202.068 160.457 209.189 157.36 221.284 158.945C227.535 159.764 237.299 163.379 237.299 163.379L234.39 183.017C234.39 183.017 224.364 178.367 218.52 177.601C206.018 175.963 199.214 179.97 187.123 178.826C180.98 178.244 171.755 174.81 171.755 174.81L174.664 155.172Z" fill="#515BDA" fill-opacity="0.4"/>
<path opacity="0.84" d="M946.589 136.513C946.589 136.513 955.822 139.882 961.957 140.528C973.994 141.797 981.115 138.701 993.209 140.286C999.46 141.105 1009.22 144.72 1009.22 144.72L1006.32 164.358C1006.32 164.358 996.29 159.708 990.446 158.942C977.944 157.304 971.139 161.311 959.049 160.167C952.906 159.585 943.681 156.151 943.681 156.151L946.589 136.513Z" fill="#515BDA" fill-opacity="0.4"/>
<path opacity="0.93" d="M1135.88 5.46571C1135.88 5.46571 1132.42 9.14845 1130.98 11.8886C1128.13 17.2641 1128.5 21.1512 1125.48 26.4955C1123.92 29.2577 1120.23 33.1432 1120.23 33.1432L1110.31 28.1786C1110.31 28.1786 1114.59 24.3612 1116.05 21.7791C1119.17 16.2546 1118.26 12.3474 1121.05 6.92397C1122.46 4.16836 1125.95 0.501067 1125.95 0.501067L1135.88 5.46571Z" fill="#2D336B"/>
<path opacity="0.75" d="M70.9407 290.296C70.9407 290.296 74.107 294.022 76.6508 295.784C81.6409 299.242 85.6548 299.564 90.5834 303.177C93.1308 305.044 96.4652 309.007 96.4652 309.007L89.7545 317.106C89.7545 317.106 86.5894 312.616 84.2082 310.871C79.1135 307.136 74.9884 307.298 69.94 303.883C67.3749 302.148 64.2299 298.396 64.2299 298.396L70.9407 290.296Z" fill="#2D336B"/>
<path opacity="0.75" d="M842.867 271.638C842.867 271.638 846.034 275.363 848.578 277.126C853.568 280.583 857.582 280.905 862.51 284.518C865.058 286.386 868.392 290.349 868.392 290.349L861.681 298.448C861.681 298.448 858.516 293.958 856.135 292.213C851.04 288.478 846.915 288.64 841.867 285.225C839.302 283.49 836.157 279.738 836.157 279.738L842.867 271.638Z" fill="#2D336B"/>
<path opacity="0.81" d="M207.431 245.317C207.431 245.317 204.977 238.059 202.256 234.062C196.92 226.221 191.132 223.58 185.982 215.54C183.32 211.384 180.76 203.681 180.76 203.681L195.693 195.218C195.693 195.218 197.68 203.616 200.168 207.5C205.492 215.811 211.741 217.79 217.19 225.599C219.958 229.566 222.364 236.854 222.364 236.854L207.431 245.317Z" fill="#2D336B"/>
<path opacity="0.81" d="M979.356 226.658C979.356 226.658 976.902 219.4 974.182 215.403C968.846 207.561 963.057 204.92 957.907 196.881C955.246 192.725 952.686 185.022 952.686 185.022L967.619 176.558C967.619 176.558 969.606 184.956 972.094 188.841C977.418 197.151 983.667 199.131 989.116 206.94C991.884 210.907 994.29 218.195 994.29 218.195L979.356 226.658Z" fill="#2D336B"/>
<path opacity="0.93" d="M963.121 97.5508C963.121 97.5508 953.133 97.5062 947.105 98.9763C935.279 101.86 929.757 107.19 917.756 109.796C911.554 111.143 900.97 111.047 900.97 111.047L896.187 91.5609C896.187 91.5609 907.415 92.5437 913.213 91.2846C925.618 88.5907 930.493 82.5095 942.322 79.4901C948.332 77.956 958.338 78.0647 958.338 78.0647L963.121 97.5508Z" fill="#515BDA" fill-opacity="0.4"/>
<path opacity="0.92" d="M89.2247 197.945C89.2247 197.945 87.9256 193.88 86.4537 191.623C83.5662 187.198 80.3875 185.657 77.6046 181.123C76.1662 178.78 74.8121 174.465 74.8121 174.465L83.1332 169.946C83.1332 169.946 84.1651 174.64 85.5097 176.83C88.3864 181.517 91.8247 182.695 94.7748 187.105C96.2737 189.345 97.5458 193.427 97.5458 193.427L89.2247 197.945Z" fill="#383F9B" fill-opacity="0.4"/>
<path opacity="0.97" d="M317.135 213.745C317.135 213.745 313.137 217.331 311.345 220.095C307.829 225.518 307.838 229.647 304.137 235.021C302.224 237.799 297.968 241.58 297.968 241.58L287.984 235.498C287.984 235.498 292.865 231.84 294.653 229.243C298.479 223.687 297.9 219.491 301.361 214.013C303.12 211.23 307.152 207.662 307.152 207.662L317.135 213.745Z" fill="#2D336B"/>
<path opacity="0.97" d="M1089.06 195.085C1089.06 195.085 1085.06 198.672 1083.27 201.436C1079.76 206.859 1079.77 210.987 1076.06 216.362C1074.15 219.14 1069.89 222.921 1069.89 222.921L1059.91 216.839C1059.91 216.839 1064.79 213.181 1066.58 210.584C1070.41 205.028 1069.83 200.832 1073.29 195.354C1075.05 192.57 1079.08 189.003 1079.08 189.003L1089.06 195.085Z" fill="#2D336B"/>
<path opacity="0.95" d="M1199.8 140.395C1199.8 140.395 1190.97 139.164 1185.44 139.762C1174.6 140.934 1169.01 145.047 1158.05 145.949C1152.38 146.416 1143.03 145.067 1143.03 145.067L1141.35 127.051C1141.35 127.051 1151.16 129.27 1156.46 128.834C1167.79 127.902 1172.9 123.039 1183.77 121.746C1189.29 121.089 1198.13 122.379 1198.13 122.379L1199.8 140.395Z" fill="#2D336B"/>
<path opacity="0.74" d="M377.06 253.737C377.06 253.737 381.291 258.526 384.653 260.778C391.248 265.197 396.478 265.564 402.998 270.185C406.367 272.573 410.824 277.668 410.824 277.668L402.343 288.254C402.343 288.254 398.091 282.474 394.941 280.241C388.201 275.465 382.842 275.727 376.172 271.365C372.784 269.148 368.579 264.323 368.579 264.323L377.06 253.737Z" fill="#383F9B" fill-opacity="0.4"/>
<path opacity="0.89" d="M650.14 258.269C650.14 258.269 655.064 254.42 657.38 251.362C661.924 245.363 662.301 240.605 667.052 234.674C669.508 231.609 674.747 227.554 674.747 227.554L685.632 235.27C685.632 235.27 679.688 239.138 677.393 242.004C672.481 248.134 672.751 253.01 668.265 259.077C665.986 262.16 661.025 265.984 661.025 265.984L650.14 258.269Z" fill="#515BDA" fill-opacity="0.4"/>
<path opacity="0.83" d="M1168.02 251.399C1168.02 251.399 1159.98 249.892 1154.87 250.188C1144.86 250.77 1139.52 254.252 1129.42 254.584C1124.2 254.755 1115.68 253.118 1115.68 253.118L1115.07 236.71C1115.07 236.71 1123.96 239.156 1128.84 238.996C1139.29 238.653 1144.23 234.47 1154.26 233.78C1159.36 233.429 1167.41 234.991 1167.41 234.991L1168.02 251.399Z" fill="#383F9B" fill-opacity="0.4"/>
<path opacity="0.75" d="M346.739 340.245C346.739 340.245 351.7 342.365 355.049 342.889C361.619 343.917 365.632 342.388 372.223 343.593C375.63 344.216 380.875 346.486 380.875 346.486L378.637 357.318C378.637 357.318 373.281 354.466 370.097 353.883C363.283 352.638 359.414 354.681 352.811 353.721C349.455 353.233 344.5 351.077 344.5 351.077L346.739 340.245Z" fill="#2D336B"/>
<path opacity="0.77" d="M479.445 290.35C479.445 290.35 484.253 286.173 486.443 282.935C490.74 276.582 490.854 271.706 495.367 265.413C497.7 262.16 502.818 257.758 502.818 257.758L514.368 265.086C514.368 265.086 508.521 269.334 506.34 272.374C501.675 278.88 502.228 283.844 497.994 290.263C495.842 293.524 490.996 297.678 490.996 297.678L479.445 290.35Z" fill="#383F9B" fill-opacity="0.4"/>
<path d="M975.994 340.358C975.994 340.358 980.165 333.636 981.541 328.959C984.24 319.783 982.461 313.849 985.445 304.67C986.987 299.926 991.444 292.823 991.444 292.823L1008.29 297.668C1008.29 297.668 1002.89 304.837 1001.45 309.272C998.364 318.76 1000.98 324.569 998.387 333.803C997.067 338.495 992.839 345.202 992.839 345.202L975.994 340.358Z" fill="#383F9B" fill-opacity="0.4"/>
</svg>
