<svg width="35" height="35" viewBox="0 0 35 35" fill="none" xmlns="http://www.w3.org/2000/svg">
<rect width="35" height="35" rx="17.5" fill="#A9B5DF"/>
<g clip-path="url(#clip0_415_797)">
<path d="M25.0036 8.11369H18.6063C18.6063 8.11369 18.5719 7.07336 17.5 7C16.4281 7.07336 16.3937 8.11369 16.3937 8.11369H9.99636L9 10.6278H17.5H26L25.0036 8.11369Z" fill="white"/>
<path d="M10.2363 11.2147L12.2291 28H22.9829L24.7557 11.2147H10.2363ZM14.8265 26.7597C14.799 26.7663 14.7715 26.7663 14.7509 26.7663C14.476 26.7663 14.2424 26.5729 14.2012 26.3062L12.2909 13.1753C12.2497 12.8819 12.4558 12.6085 12.765 12.5685C13.0742 12.5285 13.3491 12.7352 13.3903 13.0286L15.3006 26.1595C15.3418 26.4462 15.1288 26.7196 14.8265 26.7597ZM18.0492 26.2795C18.0492 26.5796 17.8018 26.8197 17.4926 26.8197C17.1834 26.8197 16.936 26.5796 16.936 26.2795V13.042C16.936 12.7419 17.1834 12.5018 17.4926 12.5018C17.8018 12.5018 18.0492 12.7419 18.0492 13.042V26.2795ZM22.6943 13.1753L20.784 26.3062C20.7428 26.5729 20.5092 26.7663 20.2343 26.7663C20.2068 26.7663 20.1793 26.7663 20.1587 26.7597C19.8564 26.7196 19.6434 26.4462 19.6846 26.1528L21.5949 13.022C21.6361 12.7285 21.9178 12.5218 22.2202 12.5618C22.5225 12.6085 22.7355 12.8819 22.6943 13.1753Z" fill="white"/>
</g>
<defs>
<clipPath id="clip0_415_797">
<rect width="17" height="21" fill="white" transform="translate(9 7)"/>
</clipPath>
</defs>
</svg>
