<svg width="1144" height="126" viewBox="0 0 1144 126" fill="none" xmlns="http://www.w3.org/2000/svg">
<g clip-path="url(#clip0_1961_6133)">
<path d="M27.1006 59.1945L12.5239 44.5581H31.2987L45.8754 59.1945H27.1006Z" stroke="#080808" stroke-width="0.873239"/>
<path d="M35.1924 41.2534V20.5543L48.4682 33.8845L48.4682 54.5836L35.1924 41.2534Z" stroke="#080808" stroke-width="0.873239"/>
<path d="M78.7163 59.1945L93.293 44.5581H74.5182L59.9415 59.1945H78.7163Z" stroke="#080808" stroke-width="0.873239"/>
<path d="M70.6245 41.2534V20.5543L57.3487 33.8845V54.5836L70.6245 41.2534Z" stroke="#080808" stroke-width="0.873239"/>
<path d="M27.334 66.6884L12.7573 81.3248H31.5321L46.1088 66.6884H27.334Z" stroke="#080808" stroke-width="0.873239"/>
<path d="M35.4255 84.6295L35.4255 105.329L48.7013 91.9984L48.7013 71.2993L35.4255 84.6295Z" stroke="#080808" stroke-width="0.873239"/>
<path d="M78.9494 66.6884L93.5261 81.3248H74.7514L60.1747 66.6884H78.9494Z" stroke="#080808" stroke-width="0.873239"/>
<path d="M70.8579 84.6295V105.329L57.5821 91.9984V71.2993L70.8579 84.6295Z" stroke="#080808" stroke-width="0.873239"/>
</g>
<g clip-path="url(#clip1_1961_6133)">
<path d="M143.101 59.1945L128.524 44.5581H147.299L161.875 59.1945H143.101Z" fill="#821404" stroke="#821404" stroke-width="0.873239"/>
<path d="M151.192 41.2534V20.5543L164.468 33.8845L164.468 54.5836L151.192 41.2534Z" fill="#821404" stroke="#821404" stroke-width="0.873239"/>
<path d="M194.716 59.1945L209.293 44.5581H190.518L175.942 59.1945H194.716Z" fill="#821404" stroke="#821404" stroke-width="0.873239"/>
<path d="M186.625 41.2534V20.5543L173.349 33.8845V54.5836L186.625 41.2534Z" fill="#821404" stroke="#821404" stroke-width="0.873239"/>
<path d="M143.334 66.6884L128.757 81.3248H147.532L162.109 66.6884H143.334Z" fill="#821404" stroke="#821404" stroke-width="0.873239"/>
<path d="M151.426 84.6295L151.426 105.329L164.702 91.9984L164.702 71.2993L151.426 84.6295Z" fill="#821404" stroke="#821404" stroke-width="0.873239"/>
<path d="M194.949 66.6884L209.526 81.3248H190.751L176.174 66.6884H194.949Z" fill="#821404" stroke="#821404" stroke-width="0.873239"/>
<path d="M186.858 84.6295V105.329L173.582 91.9984V71.2993L186.858 84.6295Z" fill="#821404" stroke="#821404" stroke-width="0.873239"/>
<path d="M171.634 57.6883L174.219 60.2947V65.9041L171.629 68.6629H166.353L163.875 65.909V60.2888L166.348 57.6883H171.634Z" fill="#FBF7F1" stroke="#080808" stroke-width="0.734139"/>
</g>
<path d="M280.745 18.915L291.94 30.2729H293.572L304.884 18.915V12.8263H297.654V16.5732H294.155V26.6431H290.54V16.5732H287.158V12.8263H280.745V18.915Z" fill="#821404" stroke="#821404" stroke-width="0.873239"/>
<path d="M287.508 5.09821V11.4212H291.239V15.2852H294.155V11.4212H297.653V5.09821H294.155V1H291.239V5.09821H287.508Z" fill="#821404" stroke="#821404" stroke-width="0.873239"/>
<path d="M280.978 107.085L292.172 95.7271H293.805L305.117 107.085V113.174H297.886V109.427H294.388V99.3569H290.773V109.427H287.391V113.174H280.978V107.085Z" fill="#821404" stroke="#821404" stroke-width="0.873239"/>
<path d="M287.741 120.902V114.579H291.473V110.715H294.388V114.579H297.887V120.902H294.388V125H291.473V120.902H287.741Z" fill="#821404" stroke="#821404" stroke-width="0.873239"/>
<path d="M249.842 75.0019L261.153 63.7611L261.153 62.1218L249.842 50.7639L243.778 50.7639L243.778 58.0236L247.509 58.0236L247.509 61.5364L257.538 61.5364L257.538 65.1662L247.509 65.1662L247.509 68.5619L243.778 68.5619L243.778 75.0019L249.842 75.0019Z" fill="#821404" stroke="#821404" stroke-width="0.873239"/>
<path d="M236.081 68.2106L242.379 68.2106L242.379 64.4636L246.227 64.4636L246.227 61.5364L242.379 61.5364L242.379 58.0236L236.081 58.0236L236.081 61.5364L232 61.5364L232 64.4636L236.081 64.4636L236.081 68.2106Z" fill="#821404" stroke="#821404" stroke-width="0.873239"/>
<path d="M267.101 59.1945L252.524 44.5581H271.299L285.875 59.1945H267.101Z" stroke="#080808" stroke-width="0.873239"/>
<path d="M275.192 41.2534V20.5543L288.468 33.8845L288.468 54.5836L275.192 41.2534Z" stroke="#080808" stroke-width="0.873239"/>
<path d="M318.716 59.1945L333.293 44.5581H314.518L299.942 59.1945H318.716Z" stroke="#080808" stroke-width="0.873239"/>
<path d="M310.625 41.2534V20.5543L297.349 33.8845V54.5836L310.625 41.2534Z" stroke="#080808" stroke-width="0.873239"/>
<path d="M267.334 66.6884L252.757 81.3248H271.532L286.109 66.6884H267.334Z" stroke="#080808" stroke-width="0.873239"/>
<path d="M275.426 84.6295L275.426 105.329L288.702 91.9984L288.702 71.2993L275.426 84.6295Z" stroke="#080808" stroke-width="0.873239"/>
<path d="M318.949 66.6884L333.526 81.3248H314.751L300.174 66.6884H318.949Z" stroke="#080808" stroke-width="0.873239"/>
<path d="M310.858 84.6295V105.329L297.582 91.9984V71.2993L310.858 84.6295Z" stroke="#080808" stroke-width="0.873239"/>
<path d="M335.975 75.0019L324.664 63.7611L324.664 62.1218L335.975 50.7639L342.039 50.7639L342.039 58.0236L338.307 58.0236L338.307 61.5364L328.279 61.5364L328.279 65.1662L338.307 65.1662L338.307 68.5619L342.039 68.5619L342.039 75.0019L335.975 75.0019Z" fill="#821404" stroke="#821404" stroke-width="0.873239"/>
<path d="M349.735 68.2106L343.438 68.2106L343.438 64.4636L339.59 64.4636L339.59 61.5364L343.438 61.5364L343.438 58.0236L349.735 58.0236L349.735 61.5364L353.817 61.5364L353.817 64.4636L349.735 64.4636L349.735 68.2106Z" fill="#821404" stroke="#821404" stroke-width="0.873239"/>
<path d="M295.634 57.6883L298.219 60.2947V65.9041L295.629 68.6629H290.353L287.875 65.909V60.2888L290.348 57.6883H295.634Z" fill="#821404" stroke="#821404" stroke-width="0.734139"/>
<path d="M394.258 85.43C394.486 82.884 394.6 79.844 394.6 76.31V52.313C394.106 52.313 393.289 52.427 392.149 52.655C391.009 52.883 390.002 53.111 389.128 53.339L388.9 52.997L390.211 46.1H408.394C411.624 46.1 414.417 46.537 416.773 47.411C419.167 48.285 421.01 49.539 422.302 51.173C423.594 52.769 424.24 54.65 424.24 56.816C424.24 58.754 423.651 60.502 422.473 62.06C421.333 63.618 419.718 64.834 417.628 65.708V65.993C420.212 66.601 422.226 67.741 423.67 69.413C425.152 71.047 425.893 73.08 425.893 75.512C425.893 78.78 424.544 81.345 421.846 83.207C419.148 85.069 415.462 86 410.788 86H394.258V85.43ZM410.218 79.388C412.27 79.388 413.885 78.913 415.063 77.963C416.279 76.975 416.887 75.702 416.887 74.144C416.887 73.194 416.602 72.358 416.032 71.636C415.462 70.876 414.664 70.287 413.638 69.869C412.612 69.413 411.472 69.185 410.218 69.185H402.865V79.388H410.218ZM409.021 62.858C410.313 62.858 411.453 62.649 412.441 62.231C413.467 61.775 414.246 61.167 414.778 60.407C415.31 59.609 415.576 58.697 415.576 57.671C415.576 56.683 415.31 55.828 414.778 55.106C414.246 54.346 413.467 53.757 412.441 53.339C411.453 52.921 410.313 52.712 409.021 52.712H402.865V62.858H409.021ZM457.978 72.491L463.735 70.61L464.077 71.636C464.875 73.422 465.635 74.961 466.357 76.253C467.117 77.545 467.934 78.59 468.808 79.388C469.682 80.186 470.575 80.585 471.487 80.585H471.829C472.589 80.547 473.159 80.319 473.539 79.901C473.919 79.445 474.109 78.894 474.109 78.248C474.109 77.412 473.767 76.405 473.083 75.227L463.564 59.495C462.88 58.355 462.12 57.158 461.284 55.904C460.448 54.65 459.612 53.434 458.776 52.256C457.37 50.242 456.04 48.38 454.786 46.67V46.1H473.482L474.622 52.427L474.337 52.883C473.691 52.769 472.836 52.655 471.772 52.541C470.708 52.389 469.872 52.313 469.264 52.313L478.27 69.527C478.308 69.603 478.346 69.698 478.384 69.812C478.422 69.888 478.46 69.983 478.498 70.097C478.574 70.287 478.65 70.496 478.726 70.724C478.802 70.914 478.878 71.123 478.954 71.351L482.716 58.925C483.02 57.823 483.324 56.721 483.628 55.619C483.932 54.517 484.217 53.415 484.483 52.313C483.951 52.313 483.229 52.389 482.317 52.541C481.443 52.655 480.702 52.769 480.094 52.883L479.809 52.37L480.949 46.1H494.857V46.613C494.059 48.361 493.261 50.318 492.463 52.484C491.665 54.612 490.791 57.044 489.841 59.78C489.727 60.008 489.613 60.255 489.499 60.521C489.423 60.787 489.347 61.053 489.271 61.319L483.457 78.02C483.381 78.21 483.305 78.4 483.229 78.59C483.153 78.78 483.077 78.97 483.001 79.16C482.355 80.794 481.557 82.162 480.607 83.264C479.695 84.366 478.612 85.202 477.358 85.772C476.104 86.342 474.679 86.627 473.083 86.627C472.475 86.627 471.886 86.57 471.316 86.456C470.784 86.38 470.252 86.247 469.72 86.057C469.53 85.981 469.321 85.905 469.093 85.829C468.903 85.715 468.713 85.62 468.523 85.544L469.834 88.679L469.378 89.021H462.025L457.978 72.491ZM501.97 85.43C502.046 84.214 502.103 82.827 502.141 81.269C502.255 79.559 502.312 77.906 502.312 76.31V52.313C501.818 52.313 501.001 52.427 499.861 52.655C498.721 52.883 497.714 53.111 496.84 53.339L496.612 52.997L497.923 46.1H511.147V46.67C511.071 48.722 511.014 50.413 510.976 51.743C510.9 53.187 510.862 54.536 510.862 55.79V62.459H516.79L520.609 57.443C521.293 56.531 521.939 55.657 522.547 54.821C523.155 53.985 523.744 53.13 524.314 52.256C523.934 52.256 523.402 52.313 522.718 52.427C522.034 52.503 521.369 52.598 520.723 52.712L518.671 52.94L518.443 52.598L520.381 46.1H537.139V46.613C536.455 47.487 535.771 48.361 535.087 49.235C534.441 50.071 533.795 50.907 533.149 51.743C532.503 52.617 531.838 53.491 531.154 54.365C530.47 55.201 529.786 56.075 529.102 56.987L523.288 64.568L532.009 76.766C534.099 79.54 536.417 82.371 538.963 85.259V86H520.552L519.013 79.844L519.241 79.502C519.583 79.54 519.944 79.597 520.324 79.673C520.704 79.749 521.084 79.844 521.464 79.958C522.072 80.148 522.699 80.319 523.345 80.471C523.991 80.623 524.542 80.718 524.998 80.756L516.904 69.641H510.862V76.31C510.862 77.564 510.9 78.913 510.976 80.357C511.014 81.687 511.071 83.378 511.147 85.43V86H501.97V85.43ZM545.416 85.43C545.644 82.884 545.758 79.844 545.758 76.31V52.313C545.264 52.313 544.447 52.427 543.307 52.655C542.167 52.883 541.16 53.111 540.286 53.339L540.058 52.997L541.369 46.1H558.013C561.813 46.1 565.024 46.594 567.646 47.582C570.268 48.532 572.225 49.938 573.517 51.8C574.847 53.624 575.512 55.847 575.512 58.469C575.512 61.091 574.847 63.333 573.517 65.195C572.225 67.057 570.268 68.482 567.646 69.47C565.024 70.42 561.813 70.895 558.013 70.895H554.365V79.787C554.973 79.787 556.037 79.673 557.557 79.445C559.115 79.179 560.312 78.951 561.148 78.761L561.376 79.103L560.065 86H545.416V85.43ZM558.982 64.739C561.566 64.739 563.523 64.226 564.853 63.2C566.221 62.136 566.905 60.692 566.905 58.868C566.905 57.044 566.221 55.6 564.853 54.536C563.523 53.472 561.566 52.94 558.982 52.94H554.365V64.739H558.982ZM574.086 85.373C574.542 84.385 574.96 83.454 575.34 82.58C575.758 81.668 576.157 80.794 576.537 79.958C577.297 78.324 578.057 76.633 578.817 74.885C579.577 73.099 580.375 71.123 581.211 68.957L587.88 52.484C587.12 52.446 586.303 52.427 585.429 52.427C584.593 52.389 583.719 52.37 582.807 52.37C582.655 52.37 582.484 52.37 582.294 52.37C582.104 52.37 581.895 52.37 581.667 52.37L583.833 45.758C585.961 45.91 588.355 46.005 591.015 46.043C593.675 46.081 595.917 46.1 597.741 46.1H600.534C601.864 50.166 603.194 53.89 604.524 57.272L610.566 72.206C611.174 73.84 611.877 75.683 612.675 77.735C613.207 78.989 613.739 80.262 614.271 81.554C614.841 82.808 615.43 84.1 616.038 85.43V86H599.964L598.653 79.559L598.824 79.217L599.736 79.331C600.458 79.445 601.218 79.559 602.016 79.673C602.814 79.749 603.536 79.787 604.182 79.787L601.959 73.859H587.025C586.949 74.049 586.854 74.258 586.74 74.486C586.664 74.714 586.588 74.942 586.512 75.17C585.828 76.918 585.258 78.457 584.802 79.787C585.41 79.787 586.094 79.749 586.854 79.673C587.652 79.559 588.431 79.445 589.191 79.331C589.343 79.293 589.495 79.274 589.647 79.274C589.837 79.236 590.008 79.217 590.16 79.217L590.388 79.559L589.134 86H574.086V85.373ZM599.964 67.703L597.57 61.604C597.532 61.49 597.494 61.395 597.456 61.319C597.418 61.205 597.38 61.11 597.342 61.034C596.658 59.134 596.05 57.595 595.518 56.417C595.024 55.239 594.511 54.289 593.979 53.567L589.134 67.703H599.964ZM620.564 85.43C620.792 82.694 620.906 79.654 620.906 76.31V52.313C620.412 52.313 619.595 52.427 618.455 52.655C617.315 52.883 616.308 53.111 615.434 53.339L615.206 52.997L616.517 46.1H629.912V46.67C629.722 49.862 629.627 52.902 629.627 55.79V79.787C630.121 79.787 630.938 79.673 632.078 79.445C633.218 79.179 634.225 78.951 635.099 78.761L635.327 79.103L634.016 86H620.564V85.43ZM626.036 32.135L621.305 42.851H620.792L616.004 32.135H626.036ZM633.446 32.135L628.715 42.851H628.202L623.414 32.135H633.446ZM681.795 79.103L680.484 86H667.089V85.43C667.279 82.884 667.374 79.844 667.374 76.31V69.812H651.642V76.31C651.642 79.464 651.737 82.504 651.927 85.43V86H642.579V85.43C642.807 82.884 642.921 79.844 642.921 76.31V52.313C642.427 52.313 641.61 52.427 640.47 52.655C639.33 52.883 638.323 53.111 637.449 53.339L637.221 52.997L638.532 46.1H651.927V46.67C651.737 49.596 651.642 52.636 651.642 55.79V62.288H667.374V55.79C667.374 52.256 667.279 49.216 667.089 46.67V46.1H676.437V46.67C676.209 49.596 676.095 52.636 676.095 55.79V79.787C676.589 79.787 677.406 79.673 678.546 79.445C679.686 79.179 680.693 78.951 681.567 78.761L681.795 79.103ZM689.087 85.43C689.315 82.694 689.429 79.654 689.429 76.31V52.313C688.935 52.313 688.118 52.427 686.978 52.655C685.838 52.883 684.831 53.111 683.957 53.339L683.729 52.997L685.04 46.1H698.435V46.67C698.245 49.862 698.15 52.902 698.15 55.79V79.787C698.644 79.787 699.461 79.673 700.601 79.445C701.741 79.179 702.748 78.951 703.622 78.761L703.85 79.103L702.539 86H689.087V85.43Z" fill="#080808"/>
<path d="M812.889 18.915L801.694 30.2729H800.062L788.75 18.915V12.8263H795.98V16.5732H799.479V26.6431H803.094V16.5732H806.475V12.8263H812.889V18.915Z" fill="#821404" stroke="#821404" stroke-width="0.873239"/>
<path d="M806.126 5.09821V11.4212H802.394V15.2852H799.479V11.4212H795.981V5.09821H799.479V1H802.394V5.09821H806.126Z" fill="#821404" stroke="#821404" stroke-width="0.873239"/>
<path d="M812.656 107.085L801.461 95.7271H799.829L788.517 107.085V113.174H795.747V109.427H799.246V99.3569H802.861V109.427H806.243V113.174H812.656V107.085Z" fill="#821404" stroke="#821404" stroke-width="0.873239"/>
<path d="M805.893 120.902V114.579H802.161V110.715H799.246V114.579H795.747V120.902H799.246V125H802.161V120.902H805.893Z" fill="#821404" stroke="#821404" stroke-width="0.873239"/>
<path d="M843.792 75.0019L832.481 63.7611L832.481 62.1218L843.792 50.7639L849.856 50.7639L849.856 58.0236L846.124 58.0236L846.124 61.5364L836.096 61.5364L836.096 65.1662L846.124 65.1662L846.124 68.5619L849.856 68.5619L849.856 75.0019L843.792 75.0019Z" fill="#821404" stroke="#821404" stroke-width="0.873239"/>
<path d="M857.552 68.2106L851.255 68.2106L851.255 64.4636L847.407 64.4636L847.407 61.5364L851.255 61.5364L851.255 58.0236L857.552 58.0236L857.552 61.5364L861.634 61.5364L861.634 64.4636L857.552 64.4636L857.552 68.2106Z" fill="#821404" stroke="#821404" stroke-width="0.873239"/>
<path d="M826.533 59.1945L841.11 44.5581H822.335L807.758 59.1945H826.533Z" stroke="#080808" stroke-width="0.873239"/>
<path d="M818.441 41.2534V20.5543L805.166 33.8845L805.166 54.5836L818.441 41.2534Z" stroke="#080808" stroke-width="0.873239"/>
<path d="M774.918 59.1945L760.341 44.5581H779.116L793.692 59.1945H774.918Z" stroke="#080808" stroke-width="0.873239"/>
<path d="M783.009 41.2534V20.5543L796.285 33.8845V54.5836L783.009 41.2534Z" stroke="#080808" stroke-width="0.873239"/>
<path d="M826.3 66.6884L840.876 81.3248H822.102L807.525 66.6884H826.3Z" stroke="#080808" stroke-width="0.873239"/>
<path d="M818.208 84.6295L818.208 105.329L804.932 91.9984L804.932 71.2993L818.208 84.6295Z" stroke="#080808" stroke-width="0.873239"/>
<path d="M774.685 66.6884L760.108 81.3248H778.883L793.459 66.6884H774.685Z" stroke="#080808" stroke-width="0.873239"/>
<path d="M782.776 84.6295V105.329L796.052 91.9984V71.2993L782.776 84.6295Z" stroke="#080808" stroke-width="0.873239"/>
<path d="M757.659 75.0019L768.97 63.7611L768.97 62.1218L757.659 50.7639L751.595 50.7639L751.595 58.0236L755.326 58.0236L755.326 61.5364L765.355 61.5364L765.355 65.1662L755.326 65.1662L755.326 68.5619L751.595 68.5619L751.595 75.0019L757.659 75.0019Z" fill="#821404" stroke="#821404" stroke-width="0.873239"/>
<path d="M743.898 68.2106L750.195 68.2106L750.195 64.4636L754.044 64.4636L754.044 61.5364L750.195 61.5364L750.195 58.0236L743.898 58.0236L743.898 61.5364L739.817 61.5364L739.817 64.4636L743.898 64.4636L743.898 68.2106Z" fill="#821404" stroke="#821404" stroke-width="0.873239"/>
<path d="M798 57.6883L795.415 60.2947V65.9041L798.005 68.6629H803.281L805.759 65.909V60.2888L803.286 57.6883H798Z" fill="#821404" stroke="#821404" stroke-width="0.734139"/>
<g clip-path="url(#clip2_1961_6133)">
<path d="M967.533 59.1945L982.11 44.5581H963.335L948.758 59.1945H967.533Z" fill="#821404" stroke="#821404" stroke-width="0.873239"/>
<path d="M959.441 41.2534V20.5543L946.166 33.8845L946.166 54.5836L959.441 41.2534Z" fill="#821404" stroke="#821404" stroke-width="0.873239"/>
<path d="M915.918 59.1945L901.341 44.5581H920.116L934.692 59.1945H915.918Z" fill="#821404" stroke="#821404" stroke-width="0.873239"/>
<path d="M924.009 41.2534V20.5543L937.285 33.8845V54.5836L924.009 41.2534Z" fill="#821404" stroke="#821404" stroke-width="0.873239"/>
<path d="M967.3 66.6884L981.876 81.3248H963.102L948.525 66.6884H967.3Z" fill="#821404" stroke="#821404" stroke-width="0.873239"/>
<path d="M959.208 84.6295L959.208 105.329L945.932 91.9984L945.932 71.2993L959.208 84.6295Z" fill="#821404" stroke="#821404" stroke-width="0.873239"/>
<path d="M915.685 66.6884L901.108 81.3248H919.883L934.459 66.6884H915.685Z" fill="#821404" stroke="#821404" stroke-width="0.873239"/>
<path d="M923.776 84.6295V105.329L937.052 91.9984V71.2993L923.776 84.6295Z" fill="#821404" stroke="#821404" stroke-width="0.873239"/>
<path d="M939 57.6883L936.415 60.2947V65.9041L939.005 68.6629H944.281L946.759 65.909V60.2888L944.286 57.6883H939Z" fill="#FBF7F1" stroke="#080808" stroke-width="0.734139"/>
</g>
<g clip-path="url(#clip3_1961_6133)">
<path d="M1108.53 59.1945L1123.11 44.5581H1104.34L1089.76 59.1945H1108.53Z" stroke="#080808" stroke-width="0.873239"/>
<path d="M1100.44 41.2534V20.5543L1087.17 33.8845L1087.17 54.5836L1100.44 41.2534Z" stroke="#080808" stroke-width="0.873239"/>
<path d="M1056.92 59.1945L1042.34 44.5581H1061.12L1075.69 59.1945H1056.92Z" stroke="#080808" stroke-width="0.873239"/>
<path d="M1065.01 41.2534V20.5543L1078.29 33.8845V54.5836L1065.01 41.2534Z" stroke="#080808" stroke-width="0.873239"/>
<path d="M1108.3 66.6884L1122.88 81.3248H1104.1L1089.53 66.6884H1108.3Z" stroke="#080808" stroke-width="0.873239"/>
<path d="M1100.21 84.6295L1100.21 105.329L1086.93 91.9984L1086.93 71.2993L1100.21 84.6295Z" stroke="#080808" stroke-width="0.873239"/>
<path d="M1056.68 66.6884L1042.11 81.3248H1060.88L1075.46 66.6884H1056.68Z" stroke="#080808" stroke-width="0.873239"/>
<path d="M1064.78 84.6295V105.329L1078.05 91.9984V71.2993L1064.78 84.6295Z" stroke="#080808" stroke-width="0.873239"/>
</g>
<defs>
<clipPath id="clip0_1961_6133">
<rect width="106" height="124" fill="white" transform="translate(0 1)"/>
</clipPath>
<clipPath id="clip1_1961_6133">
<rect width="106" height="124" fill="white" transform="translate(116 1)"/>
</clipPath>
<clipPath id="clip2_1961_6133">
<rect width="122" height="124" fill="white" transform="matrix(-1 0 0 1 1002.63 1)"/>
</clipPath>
<clipPath id="clip3_1961_6133">
<rect width="122" height="124" fill="white" transform="matrix(-1 0 0 1 1143.63 1)"/>
</clipPath>
</defs>
</svg>
