<svg width="57" height="57" viewBox="0 0 57 57" fill="none" xmlns="http://www.w3.org/2000/svg">
<rect x="9.04154" y="8.64829" width="39.3103" height="39.3103" fill="#643C2A" stroke="#080808" stroke-width="0.786207"/>
<rect x="18.8687" y="18.0827" width="20.0483" height="20.0483" fill="#FBF7F1" stroke="#080808" stroke-width="0.786207"/>
<line x1="9.04147" y1="8.64825" x2="9.04147" y2="-2.19173e-05" stroke="#080808" stroke-width="0.786207"/>
<line x1="12.9721" y1="8.64825" x2="12.9721" y2="-2.19173e-05" stroke="#080808" stroke-width="0.786207"/>
<line x1="16.9038" y1="8.64825" x2="16.9038" y2="-2.19173e-05" stroke="#080808" stroke-width="0.786207"/>
<line x1="20.8344" y1="8.64825" x2="20.8344" y2="-2.19173e-05" stroke="#080808" stroke-width="0.786207"/>
<line x1="24.7651" y1="8.64825" x2="24.7651" y2="-2.19173e-05" stroke="#080808" stroke-width="0.786207"/>
<line x1="28.6967" y1="8.64825" x2="28.6967" y2="-2.19173e-05" stroke="#080808" stroke-width="0.786207"/>
<line x1="32.6274" y1="8.64825" x2="32.6274" y2="-2.19173e-05" stroke="#080808" stroke-width="0.786207"/>
<line x1="36.559" y1="8.64825" x2="36.559" y2="-2.19173e-05" stroke="#080808" stroke-width="0.786207"/>
<line x1="40.4897" y1="8.64825" x2="40.4897" y2="-2.19173e-05" stroke="#080808" stroke-width="0.786207"/>
<line x1="44.4204" y1="8.64825" x2="44.4204" y2="-2.19173e-05" stroke="#080808" stroke-width="0.786207"/>
<line x1="48.352" y1="8.64825" x2="48.352" y2="-2.19173e-05" stroke="#080808" stroke-width="0.786207"/>
<line x1="9.04147" y1="57" x2="9.04147" y2="48.3517" stroke="#080808" stroke-width="0.786207"/>
<line x1="12.9721" y1="57" x2="12.9721" y2="48.3517" stroke="#080808" stroke-width="0.786207"/>
<line x1="16.9038" y1="57" x2="16.9038" y2="48.3517" stroke="#080808" stroke-width="0.786207"/>
<line x1="20.8344" y1="57" x2="20.8344" y2="48.3517" stroke="#080808" stroke-width="0.786207"/>
<line x1="24.7651" y1="57" x2="24.7651" y2="48.3517" stroke="#080808" stroke-width="0.786207"/>
<line x1="28.6967" y1="57" x2="28.6967" y2="48.3517" stroke="#080808" stroke-width="0.786207"/>
<line x1="32.6274" y1="57" x2="32.6274" y2="48.3517" stroke="#080808" stroke-width="0.786207"/>
<line x1="36.559" y1="57" x2="36.559" y2="48.3517" stroke="#080808" stroke-width="0.786207"/>
<line x1="40.4897" y1="57" x2="40.4897" y2="48.3517" stroke="#080808" stroke-width="0.786207"/>
<line x1="44.4204" y1="57" x2="44.4204" y2="48.3517" stroke="#080808" stroke-width="0.786207"/>
<line x1="48.352" y1="57" x2="48.352" y2="48.3517" stroke="#080808" stroke-width="0.786207"/>
<line x1="48.3516" y1="8.64828" x2="56.9998" y2="8.64828" stroke="#080808" stroke-width="0.786207"/>
<line x1="48.3516" y1="12.5793" x2="56.9998" y2="12.5793" stroke="#080808" stroke-width="0.786207"/>
<line x1="48.3516" y1="16.5103" x2="56.9998" y2="16.5103" stroke="#080808" stroke-width="0.786207"/>
<line x1="48.3516" y1="20.4414" x2="56.9998" y2="20.4414" stroke="#080808" stroke-width="0.786207"/>
<line x1="48.3516" y1="24.3724" x2="56.9998" y2="24.3724" stroke="#080808" stroke-width="0.786207"/>
<line x1="48.3516" y1="28.3034" x2="56.9998" y2="28.3034" stroke="#080808" stroke-width="0.786207"/>
<line x1="48.3516" y1="32.2345" x2="56.9998" y2="32.2345" stroke="#080808" stroke-width="0.786207"/>
<line x1="48.3516" y1="36.1655" x2="56.9998" y2="36.1655" stroke="#080808" stroke-width="0.786207"/>
<line x1="48.3516" y1="40.0966" x2="56.9998" y2="40.0966" stroke="#080808" stroke-width="0.786207"/>
<line x1="48.3516" y1="44.0276" x2="56.9998" y2="44.0276" stroke="#080808" stroke-width="0.786207"/>
<line x1="48.3516" y1="47.9586" x2="56.9998" y2="47.9586" stroke="#080808" stroke-width="0.786207"/>
<line y1="8.64828" x2="8.64828" y2="8.64828" stroke="#080808" stroke-width="0.786207"/>
<line y1="12.5793" x2="8.64828" y2="12.5793" stroke="#080808" stroke-width="0.786207"/>
<line y1="16.5103" x2="8.64828" y2="16.5103" stroke="#080808" stroke-width="0.786207"/>
<line y1="20.4414" x2="8.64828" y2="20.4414" stroke="#080808" stroke-width="0.786207"/>
<line y1="24.3724" x2="8.64828" y2="24.3724" stroke="#080808" stroke-width="0.786207"/>
<line y1="28.3034" x2="8.64828" y2="28.3034" stroke="#080808" stroke-width="0.786207"/>
<line y1="32.2345" x2="8.64828" y2="32.2345" stroke="#080808" stroke-width="0.786207"/>
<line y1="36.1655" x2="8.64828" y2="36.1655" stroke="#080808" stroke-width="0.786207"/>
<line y1="40.0966" x2="8.64828" y2="40.0966" stroke="#080808" stroke-width="0.786207"/>
<line y1="44.0276" x2="8.64828" y2="44.0276" stroke="#080808" stroke-width="0.786207"/>
<line y1="47.9586" x2="8.64828" y2="47.9586" stroke="#080808" stroke-width="0.786207"/>
</svg>
