<svg width="81" height="81" viewBox="0 0 81 81" fill="none" xmlns="http://www.w3.org/2000/svg">
<rect x="12.8487" y="12.2896" width="55.8621" height="55.8621" stroke="#080808" stroke-width="1.11724"/>
<rect x="26.8135" y="25.6966" width="28.4897" height="28.4897" stroke="#080808" stroke-width="1.11724"/>
<line x1="12.8486" y1="12.2897" x2="12.8486" y2="1.71906e-05" stroke="#080808" stroke-width="1.11724"/>
<line x1="18.4345" y1="12.2897" x2="18.4345" y2="1.71906e-05" stroke="#080808" stroke-width="1.11724"/>
<line x1="24.0215" y1="12.2897" x2="24.0215" y2="1.71906e-05" stroke="#080808" stroke-width="1.11724"/>
<line x1="29.6074" y1="12.2897" x2="29.6074" y2="1.71906e-05" stroke="#080808" stroke-width="1.11724"/>
<line x1="35.1933" y1="12.2897" x2="35.1933" y2="1.71906e-05" stroke="#080808" stroke-width="1.11724"/>
<line x1="40.7793" y1="12.2897" x2="40.7793" y2="1.71906e-05" stroke="#080808" stroke-width="1.11724"/>
<line x1="46.3662" y1="12.2897" x2="46.3662" y2="1.71906e-05" stroke="#080808" stroke-width="1.11724"/>
<line x1="51.9521" y1="12.2897" x2="51.9521" y2="1.71906e-05" stroke="#080808" stroke-width="1.11724"/>
<line x1="57.5381" y1="12.2897" x2="57.5381" y2="1.71906e-05" stroke="#080808" stroke-width="1.11724"/>
<line x1="63.124" y1="12.2897" x2="63.124" y2="1.71906e-05" stroke="#080808" stroke-width="1.11724"/>
<line x1="68.7109" y1="12.2897" x2="68.7109" y2="1.71906e-05" stroke="#080808" stroke-width="1.11724"/>
<line x1="12.8486" y1="81" x2="12.8486" y2="68.7103" stroke="#080808" stroke-width="1.11724"/>
<line x1="18.4345" y1="81" x2="18.4345" y2="68.7103" stroke="#080808" stroke-width="1.11724"/>
<line x1="24.0215" y1="81" x2="24.0215" y2="68.7103" stroke="#080808" stroke-width="1.11724"/>
<line x1="29.6074" y1="81" x2="29.6074" y2="68.7103" stroke="#080808" stroke-width="1.11724"/>
<line x1="35.1933" y1="81" x2="35.1933" y2="68.7103" stroke="#080808" stroke-width="1.11724"/>
<line x1="40.7793" y1="81" x2="40.7793" y2="68.7103" stroke="#080808" stroke-width="1.11724"/>
<line x1="46.3662" y1="81" x2="46.3662" y2="68.7103" stroke="#080808" stroke-width="1.11724"/>
<line x1="51.9521" y1="81" x2="51.9521" y2="68.7103" stroke="#080808" stroke-width="1.11724"/>
<line x1="57.5381" y1="81" x2="57.5381" y2="68.7103" stroke="#080808" stroke-width="1.11724"/>
<line x1="63.124" y1="81" x2="63.124" y2="68.7103" stroke="#080808" stroke-width="1.11724"/>
<line x1="68.7109" y1="81" x2="68.7109" y2="68.7103" stroke="#080808" stroke-width="1.11724"/>
<line x1="68.71" y1="12.2896" x2="80.9996" y2="12.2896" stroke="#080808" stroke-width="1.11724"/>
<line x1="68.71" y1="17.8759" x2="80.9996" y2="17.8759" stroke="#080808" stroke-width="1.11724"/>
<line x1="68.71" y1="23.4621" x2="80.9996" y2="23.4621" stroke="#080808" stroke-width="1.11724"/>
<line x1="68.71" y1="29.0483" x2="80.9996" y2="29.0483" stroke="#080808" stroke-width="1.11724"/>
<line x1="68.71" y1="34.6345" x2="80.9996" y2="34.6345" stroke="#080808" stroke-width="1.11724"/>
<line x1="68.71" y1="40.2207" x2="80.9996" y2="40.2207" stroke="#080808" stroke-width="1.11724"/>
<line x1="68.71" y1="45.8069" x2="80.9996" y2="45.8069" stroke="#080808" stroke-width="1.11724"/>
<line x1="68.71" y1="51.3931" x2="80.9996" y2="51.3931" stroke="#080808" stroke-width="1.11724"/>
<line x1="68.71" y1="56.9793" x2="80.9996" y2="56.9793" stroke="#080808" stroke-width="1.11724"/>
<line x1="68.71" y1="62.5655" x2="80.9996" y2="62.5655" stroke="#080808" stroke-width="1.11724"/>
<line x1="68.71" y1="68.1517" x2="80.9996" y2="68.1517" stroke="#080808" stroke-width="1.11724"/>
<line y1="12.2896" x2="12.2897" y2="12.2896" stroke="#080808" stroke-width="1.11724"/>
<line y1="17.8758" x2="12.2897" y2="17.8758" stroke="#080808" stroke-width="1.11724"/>
<line y1="23.4621" x2="12.2897" y2="23.4621" stroke="#080808" stroke-width="1.11724"/>
<line y1="29.0483" x2="12.2897" y2="29.0483" stroke="#080808" stroke-width="1.11724"/>
<line y1="34.6345" x2="12.2897" y2="34.6345" stroke="#080808" stroke-width="1.11724"/>
<line y1="40.2207" x2="12.2897" y2="40.2207" stroke="#080808" stroke-width="1.11724"/>
<line y1="45.8069" x2="12.2897" y2="45.8069" stroke="#080808" stroke-width="1.11724"/>
<line y1="51.3931" x2="12.2897" y2="51.3931" stroke="#080808" stroke-width="1.11724"/>
<line y1="56.9793" x2="12.2897" y2="56.9793" stroke="#080808" stroke-width="1.11724"/>
<line y1="62.5655" x2="12.2897" y2="62.5655" stroke="#080808" stroke-width="1.11724"/>
<line y1="68.1517" x2="12.2897" y2="68.1517" stroke="#080808" stroke-width="1.11724"/>
</svg>
