<svg width="20" height="11" viewBox="0 0 20 11" fill="none" xmlns="http://www.w3.org/2000/svg">
<path d="M18.5698 0.397949C18.7588 0.450861 18.901 0.670261 18.8345 0.86377C18.2751 2.50107 17.2877 3.97994 15.9634 5.09717C13.5945 7.09556 10.3398 7.84239 7.34814 6.98682C4.35784 6.12962 1.96569 3.79669 0.963379 0.86377C0.898518 0.668854 1.04072 0.449441 1.22803 0.397949C1.43357 0.342027 1.62728 0.469173 1.69385 0.662598C2.21239 2.18046 3.14367 3.53228 4.3667 4.56787C6.52704 6.38809 9.51917 7.03537 12.2358 6.2583C14.9676 5.47666 17.1849 3.34603 18.104 0.662598C18.1705 0.46765 18.3628 0.340642 18.5698 0.397949Z" fill="#7886C7"/>
<path d="M18.5698 0.397949C18.7588 0.450861 18.901 0.670261 18.8345 0.86377C18.2751 2.50107 17.2877 3.97994 15.9634 5.09717C13.5945 7.09556 10.3398 7.84239 7.34814 6.98682C4.35784 6.12962 1.96569 3.79669 0.963379 0.86377C0.898518 0.668854 1.04072 0.449441 1.22803 0.397949C1.43357 0.342027 1.62728 0.469173 1.69385 0.662598C2.21239 2.18046 3.14367 3.53228 4.3667 4.56787C6.52704 6.38809 9.51917 7.03537 12.2358 6.2583C14.9676 5.47666 17.1849 3.34603 18.104 0.662598C18.1705 0.46765 18.3628 0.340642 18.5698 0.397949Z" stroke="#1B56FD"/>
<path d="M1.14355 6.92615L0.591797 6.4115C0.47313 6.55852 0.461072 6.79036 0.608398 6.92615L0.648438 6.95642C0.780476 7.05241 0.953825 7.06582 1.08496 6.97595L1.14355 6.92615ZM1.14355 6.92615C1.14938 6.91991 1.15433 6.91285 1.16016 6.90662L0.873047 6.63806M1.14355 6.92615L0.856445 6.65564M0.873047 6.63806L0.856445 6.65564M0.873047 6.63806L0.608398 6.39099M0.873047 6.63806L0.856445 6.65564M0.856445 6.65564L0.59375 6.40857C0.598595 6.40268 0.603208 6.39659 0.608398 6.39099M2.95605 4.37732L2.70117 4.65369M2.95605 4.37732L2.70508 4.14392C2.09179 4.80063 1.4805 5.45791 0.867188 6.11462L0.608398 6.39099M2.95605 4.37732L3.25977 4.65857M2.95605 4.37732L2.70117 4.65369M2.70117 4.65369L3.00195 4.93494M2.70117 4.65369L2.73828 4.68884L3.00195 4.93494M3.00195 4.93494L1.41895 6.63025C1.33362 6.72167 1.24846 6.81325 1.16309 6.90466L0.874023 6.63708L0.608398 6.39099M3.00195 4.93494L3.25977 4.65857M3.25977 4.65857C3.26492 4.65301 3.26863 4.64586 3.27344 4.64001L3.01074 4.39294M3.25977 4.65857L2.99414 4.41052M2.99414 4.41052L3.01074 4.39294M2.99414 4.41052L3.01074 4.39294M2.99414 4.41052L2.70703 4.14197C2.71285 4.13574 2.71879 4.12964 2.72461 4.12341M3.01074 4.39294L2.72461 4.12341M2.97461 4.35681L3.27539 4.63708C3.39416 4.49007 3.40715 4.25924 3.25977 4.12341C3.24715 4.1118 3.23334 4.10202 3.21973 4.09216M2.97461 4.35681L3.21973 4.09216M2.97461 4.35681L3.21973 4.09216M2.97461 4.35681L2.72461 4.12341M3.21973 4.09216C3.06694 3.98149 2.85784 3.98185 2.72461 4.12341" fill="#7886C7" stroke="black" stroke-width="27"/>
<path d="M18.5674 6.26074L18.8555 6.51465L18.8916 6.54102L19.0996 6.30664L18.7832 6.01465L18.6445 6.17285L18.5674 6.26074ZM18.5674 6.26074L18.7822 6.01367L17.1045 4.46484L16.8525 4.75293C17.4241 5.2556 17.9958 5.75773 18.5674 6.26074ZM19.3906 6.51465L19.1289 6.27539L19.1104 6.29785L19.3682 6.5332L19.3906 6.51465ZM19.3906 6.51465C19.5222 6.37103 19.5494 6.12009 19.3906 5.97949M19.3906 6.51465L19.1299 6.27441L19.3906 5.97949M19.3906 5.97949C19.378 5.96837 19.3652 5.95741 19.3525 5.94629M19.3906 5.97949L19.1289 6.27344L19.0938 6.24121M19.0928 6.24219L19.1289 6.27441L19.1094 6.29688L19.0732 6.26465M19.0928 6.24219L19.0732 6.26465M19.0928 6.24219L19.0732 6.26465M19.0928 6.24219L18.8105 5.9834L18.791 6.00586L19.0732 6.26465M19.3525 5.94629L19.0938 6.24121M19.3525 5.94629L19.0938 6.24121M19.3525 5.94629C19.2568 5.86202 19.1612 5.77758 19.0654 5.69336L18.8125 5.98145L19.0938 6.24121M17.3496 4.18555C17.9209 4.68828 18.4922 5.18999 19.0635 5.69238L18.8115 5.98047L17.1338 4.43164L17.3496 4.18555ZM17.3496 4.18555L17.1328 4.43066L16.8506 4.1709M17.3496 4.18555L17.0615 3.93164M16.5635 4.49902C16.6592 4.58329 16.7548 4.66774 16.8506 4.75195L17.1035 4.46387L16.8223 4.2041M16.5635 4.49902L16.8223 4.2041M16.5635 4.49902L16.8223 4.2041M16.5635 4.49902H16.5625M16.8223 4.2041H16.8213M16.5625 4.49902L16.8213 4.2041M16.5625 4.49902L16.8213 4.2041M16.5625 4.49902L16.5264 4.4668M16.8213 4.2041L16.7871 4.17188L16.5771 4.40918L16.5264 4.4668M16.5264 4.4668L16.7861 4.1709L16.5264 3.93164M16.5264 4.4668C16.3677 4.32623 16.3949 4.07528 16.5264 3.93164M16.5264 3.93164L16.7871 4.16992L16.8057 4.14746L16.5479 3.91211C16.5408 3.91854 16.533 3.92444 16.5264 3.93164ZM16.8418 4.18066L17.125 4.43945L17.1055 4.46191L16.8223 4.20312M16.8418 4.18066L16.8223 4.20312M16.8418 4.18066L16.8223 4.20312M16.8418 4.18066L16.8066 4.14844L16.7871 4.1709L16.8223 4.20312M16.8506 4.1709L17.0615 3.93164M16.8506 4.1709L17.0615 3.93164M16.8506 4.1709L16.8164 4.13867L17.0244 3.9043C17.0369 3.91307 17.0501 3.9216 17.0615 3.93164M19.3564 6.54395C19.2223 6.65517 19.0309 6.63893 18.8936 6.54297L19.1006 6.30762L19.3564 6.54395ZM18.8096 5.98242L18.79 6.00488L17.1064 4.46289L17.126 4.44043L18.8096 5.98242ZM16.5596 3.90137C16.6933 3.79024 16.8851 3.80697 17.0225 3.90234L16.8154 4.1377L16.5596 3.90137Z" fill="#7886C7" stroke="black" stroke-width="27"/>
<path d="M15.9897 8.95337L15.8101 8.64673L15.6538 8.7522L15.7993 9.00122C15.8389 9.00198 15.8791 8.99861 15.9185 8.9856L15.9897 8.95337ZM15.9897 8.95337C16.1573 8.85503 16.2385 8.60749 16.1255 8.43677M15.9897 8.95337L15.811 8.64673L16.1255 8.43677M16.1255 8.43677C16.0446 8.31604 15.9633 8.19519 15.8823 8.07446L15.5913 8.26978L15.8101 8.64478L16.1255 8.43677ZM15.4263 8.38013L15.644 8.75513L15.4995 8.85181L15.4722 8.81763L15.2563 8.49536M15.4263 8.38013L15.2563 8.49536M15.4263 8.38013L15.2886 8.47388L15.2563 8.49536M15.4263 8.38013L14.2778 6.40747L13.9878 6.60474C14.4104 7.23499 14.8341 7.86511 15.2563 8.49536M15.6294 8.71118L15.6519 8.75024L15.8091 8.64575L15.7866 8.60669M15.6294 8.71118L15.7866 8.60669M15.6294 8.71118L15.7866 8.60669M15.6294 8.71118V8.71021M15.7866 8.60669L15.7856 8.60474M15.6294 8.71021L15.7856 8.60474M15.6294 8.71021L15.7856 8.60474M15.6294 8.71021L15.4331 8.37622L15.5903 8.27075L15.7856 8.60474M14.6138 6.18188C15.0359 6.81193 15.4589 7.44247 15.8813 8.07251L15.5913 8.2688L14.4429 6.29614M14.6138 6.18188L14.4429 6.29614M14.6138 6.18188C14.5414 6.07477 14.4704 5.96771 14.3979 5.8606M14.6138 6.18188L14.4429 6.29614M14.4429 6.29614L14.2476 5.96118L14.3979 5.8606M13.772 6.28247C13.8433 6.38889 13.9145 6.49539 13.9858 6.60181L14.2778 6.40649L14.0835 6.07251M13.772 6.28247L14.0835 6.07251M13.772 6.28247L14.0835 6.07251M13.772 6.28247C13.7713 6.2815 13.7707 6.28052 13.77 6.27954M14.0835 6.07251L14.0825 6.07153M14.0845 6.07153L14.2788 6.40552L14.436 6.30005L14.2407 5.96606M14.0845 6.07153L14.2407 5.96606M14.0845 6.07153L14.2407 5.96606M14.0845 6.07153L14.0601 6.03149L14.2173 5.927L14.2407 5.96606M14.3979 5.8606L14.2476 5.96021L14.2251 5.92212L14.3696 5.82544C14.3791 5.83683 14.3896 5.84814 14.3979 5.8606ZM13.77 6.27954L14.0825 6.07153M13.77 6.27954L14.0825 6.07153M13.77 6.27954L13.7446 6.24146M14.0825 6.07153L14.0591 6.03149L13.7446 6.24146M13.7446 6.24146L14.0581 6.03052L13.8804 5.72388M13.7446 6.24146C13.6312 6.07062 13.7126 5.82214 13.8804 5.72388M13.8804 5.72388L14.0591 6.02954L14.2163 5.92505L14.0698 5.67505C14.0063 5.67397 13.9414 5.6884 13.8804 5.72388ZM15.7876 9.00122C15.6784 8.99558 15.575 8.94172 15.5015 8.85376L15.646 8.75708L15.7876 9.00122ZM15.5894 8.26978L15.4331 8.37524L14.2798 6.40649L14.436 6.30103L15.5894 8.26978ZM14.0815 5.67505C14.1908 5.68045 14.294 5.73567 14.3677 5.82349L14.2241 5.91919L14.0815 5.67505Z" fill="#7886C7" stroke="black" stroke-width="27"/>
<path d="M6.12842 6.02234C6.1134 5.91682 6.05824 5.82039 5.95361 5.75964C5.79033 5.66447 5.52317 5.70947 5.43701 5.89539L5.40771 5.95691C5.40661 5.95928 5.40491 5.96137 5.40381 5.96375M6.12842 6.02234L6.03955 6.17468M6.12842 6.02234C6.13711 6.08343 6.13316 6.14695 6.11475 6.20886M6.12842 6.02234L6.03955 6.17468M6.03955 6.17468L6.11475 6.20886M6.03955 6.17468L6.11475 6.20886M6.11475 6.20886C6.10799 6.23159 6.10055 6.25437 6.09033 6.27625L5.92822 6.6239L4.97021 8.67664C4.90649 8.81325 4.84344 8.95017 4.77979 9.08679L4.73877 9.15027C4.64334 9.26312 4.46617 9.29696 4.32764 9.25183L4.26221 9.22253C4.09639 9.12613 4.04972 8.9398 4.10107 8.77039L4.12646 8.70593M4.12646 8.70593L4.21143 8.745M4.12646 8.70593L4.21143 8.745M4.12646 8.70593L4.2876 8.35828C4.65937 7.56034 5.03196 6.76168 5.40381 5.96375M4.21143 8.745L5.74365 6.11804M4.21143 8.745L5.74365 6.11804M5.74365 6.11804L5.40381 5.96375M5.74365 6.11804L5.40381 5.96375" fill="#7886C7" stroke="black" stroke-width="27"/>
<path d="M9.87109 10.2511V7.14856C9.87109 6.66175 10.627 6.66175 10.627 7.14856V10.2511L10.6182 10.3361C10.5407 10.7089 9.9573 10.7089 9.87988 10.3361L9.87109 10.2511Z" fill="#7886C7" stroke="black" stroke-width="27"/>
</svg>
