<svg width="593" height="271" viewBox="0 0 593 271" fill="none" xmlns="http://www.w3.org/2000/svg">
<path d="M222.616 129.064L171.872 78.3198H237.231L287.975 129.064H222.616Z" fill="#DFBB92" stroke="#080808" stroke-width="1.62382"/>
<path d="M242.666 74.5756V2.81201L288.881 49.0278V120.791L242.666 74.5756Z" fill="#DFBB92" stroke="#080808" stroke-width="1.62382"/>
<path d="M369.572 129.064L420.317 78.3198H354.958L304.213 129.064H369.572Z" fill="#DFBB92" stroke="#080808" stroke-width="1.62382"/>
<path d="M349.775 74.5756V2.81201L303.559 49.0278V120.791L349.775 74.5756Z" fill="#DFBB92" stroke="#080808" stroke-width="1.62382"/>
<path d="M222.616 143.273L171.872 194.017H237.231L287.975 143.273H222.616Z" fill="#DFBB92" stroke="#080808" stroke-width="1.62382"/>
<path d="M242.666 196.796V268.559L288.881 222.344V150.58L242.666 196.796Z" fill="#DFBB92" stroke="#080808" stroke-width="1.62382"/>
<path d="M370.384 143.273L421.128 194.017H355.769L305.025 143.273H370.384Z" fill="#DFBB92" stroke="#080808" stroke-width="1.62382"/>
<path d="M350.586 196.796V268.559L304.371 222.344V150.58L350.586 196.796Z" fill="#DFBB92" stroke="#080808" stroke-width="1.62382"/>
<path d="M354.552 73.4482L416.257 11.7429" stroke="#080808" stroke-width="1.62382" stroke-linecap="round"/>
<path d="M368.354 59.6459V28.5324L393.523 2.81201V34.4766" stroke="#080808" stroke-width="1.62382" stroke-linecap="round"/>
<path d="M368.354 59.6458L399.468 59.6458L425.188 34.4765L393.523 34.4765" stroke="#080808" stroke-width="1.62382" stroke-linecap="round"/>
<rect x="416.257" y="2.81191" width="8.93104" height="8.93104" fill="#821404" stroke="#821404" stroke-width="1.62382"/>
<path d="M354.552 196.859L416.257 258.564" stroke="#080808" stroke-width="1.62382" stroke-linecap="round"/>
<path d="M368.354 210.662V241.775L393.523 267.495V235.831" stroke="#080808" stroke-width="1.62382" stroke-linecap="round"/>
<path d="M368.354 210.661L399.468 210.661L425.188 235.831L393.523 235.831" stroke="#080808" stroke-width="1.62382" stroke-linecap="round"/>
<rect x="0.811912" y="-0.811912" width="8.93104" height="8.93104" transform="matrix(1 0 0 -1 415.445 266.683)" fill="#821404" stroke="#821404" stroke-width="1.62382"/>
<path d="M239.26 75.072L177.555 13.3667" stroke="#080808" stroke-width="1.62382" stroke-linecap="round"/>
<path d="M225.458 61.2696V30.1562L200.288 4.43579V36.1004" stroke="#080808" stroke-width="1.62382" stroke-linecap="round"/>
<path d="M225.458 61.2695L194.344 61.2695L168.624 36.1003L200.288 36.1003" stroke="#080808" stroke-width="1.62382" stroke-linecap="round"/>
<rect x="-0.811912" y="0.811912" width="8.93104" height="8.93104" transform="matrix(-1 0 0 1 176.743 3.62378)" fill="#821404" stroke="#821404" stroke-width="1.62382"/>
<path d="M238.448 196.859L176.743 258.564" stroke="#080808" stroke-width="1.62382" stroke-linecap="round"/>
<path d="M224.646 210.662V241.775L199.477 267.495V235.831" stroke="#080808" stroke-width="1.62382" stroke-linecap="round"/>
<path d="M224.646 210.661L193.532 210.661L167.812 235.831L199.477 235.831" stroke="#080808" stroke-width="1.62382" stroke-linecap="round"/>
<rect x="176.743" y="267.495" width="8.93104" height="8.93104" transform="rotate(180 176.743 267.495)" fill="#821404" stroke="#821404" stroke-width="1.62382"/>
<path d="M389.464 120.539L373.632 136.371L389.464 152.204H414.633L398.801 136.371L414.633 120.539H389.464Z" fill="#821404" stroke="#821404" stroke-width="1.62382" stroke-linecap="round"/>
<path d="M202.724 120.539L218.557 136.371L202.724 152.204H177.555L193.387 136.371L177.555 120.539H202.724Z" fill="#821404" stroke="#821404" stroke-width="1.62382" stroke-linecap="round"/>
<path d="M447.832 120L432 135.832L447.832 151.665H473.002L457.169 135.832L473.002 120H447.832Z" fill="#821404" stroke="#821404" stroke-width="1.62382" stroke-linecap="round"/>
<path d="M506.834 120L491.001 135.832L506.834 151.665H532.003L516.171 135.832L532.003 120H506.834Z" fill="#821404" stroke="#821404" stroke-width="1.62382" stroke-linecap="round"/>
<path d="M565.835 120L550.003 135.832L565.835 151.665H591.004L575.172 135.832L591.004 120H565.835Z" fill="#821404" stroke="#821404" stroke-width="1.62382" stroke-linecap="round"/>
<path d="M145.172 121L161.005 136.832L145.172 152.665H120.003L135.835 136.832L120.003 121H145.172Z" fill="#821404" stroke="#821404" stroke-width="1.62382" stroke-linecap="round"/>
<path d="M86.1709 121L102.003 136.832L86.1709 152.665H61.0016L76.8339 136.832L61.0016 121H86.1709Z" fill="#821404" stroke="#821404" stroke-width="1.62382" stroke-linecap="round"/>
<path d="M27.1692 121L43.0015 136.832L27.1692 152.665H1.9999L17.8322 136.832L1.9999 121H27.1692Z" fill="#821404" stroke="#821404" stroke-width="1.62382" stroke-linecap="round"/>
</svg>
