<svg width="522" height="523" viewBox="0 0 522 523" fill="none" xmlns="http://www.w3.org/2000/svg">
<path d="M328.434 142.4L328.186 190.215L331.654 193.684L379.717 193.684L392.6 180.801L377.24 165.441L369.312 173.368L361.879 165.936L340.573 187.242L332.893 179.562L354.199 158.256L347.015 151.071L354.942 143.143L341.316 129.517L328.434 142.4Z" fill="#821404" stroke="#821404" stroke-width="1.40147"/>
<path d="M372.037 127.535L358.659 140.913L366.586 148.841L358.411 157.017L364.604 163.211L372.78 155.035L380.213 162.467L393.591 149.089L386.158 141.657L394.83 132.986L388.636 126.792L379.965 135.463L372.037 127.535Z" stroke="black" stroke-width="1.40147"/>
<path d="M142.377 329.448L190.192 329.201L193.66 332.669L193.66 380.732L180.778 393.615L165.417 378.255L173.345 370.327L165.913 362.894L187.219 341.588L179.539 333.908L158.233 355.214L151.048 348.029L143.12 355.957L129.494 342.331L142.377 329.448Z" fill="#821404" stroke="#821404" stroke-width="1.40147"/>
<path d="M127.512 373.052L140.89 359.673L148.818 367.601L156.994 359.426L163.187 365.619L155.012 373.795L162.444 381.227L149.066 394.606L141.633 387.173L132.962 395.844L126.769 389.651L135.44 380.98L127.512 373.052Z" stroke="black" stroke-width="1.40147"/>
<path d="M144.111 195.417L191.926 195.665L195.394 192.197L195.394 144.134L182.512 131.251L167.151 146.611L175.079 154.539L167.647 161.972L188.953 183.278L181.273 190.958L159.967 169.652L152.782 176.837L144.854 168.909L131.228 182.535L144.111 195.417Z" fill="#821404" stroke="#821404" stroke-width="1.40147"/>
<path d="M129.246 151.814L142.625 165.193L150.553 157.265L158.728 165.44L164.922 159.247L156.746 151.071L164.179 143.639L150.8 130.261L143.368 137.693L134.697 129.022L128.503 135.215L137.174 143.887L129.246 151.814Z" stroke="black" stroke-width="1.40147"/>
<path d="M214.223 198.638V136.702L254.11 176.589L254.11 238.526L214.223 198.638Z" fill="#DFBB92" stroke="black" stroke-width="1.40147"/>
<path d="M269.374 177.869L313.17 134.073V190.482L269.374 234.277V177.869Z" fill="#DFBB92" stroke="black" stroke-width="1.40147"/>
<path d="M323.881 308.296H385.817L345.93 268.409L283.994 268.409L323.881 308.296Z" fill="#DFBB92" stroke="black" stroke-width="1.40147"/>
<path d="M344.651 253.145L388.446 209.349H332.037L288.242 253.145H344.651Z" fill="#DFBB92" stroke="black" stroke-width="1.40147"/>
<path d="M198.862 214.99H136.926L176.813 254.877L238.75 254.877L198.862 214.99Z" fill="#DFBB92" stroke="black" stroke-width="1.40147"/>
<path d="M178.093 270.141L134.297 313.937H190.706L234.502 270.141H178.093Z" fill="#DFBB92" stroke="black" stroke-width="1.40147"/>
<path d="M308.52 324.647V386.584L268.633 346.697L268.633 284.76L308.52 324.647Z" fill="#DFBB92" stroke="black" stroke-width="1.40147"/>
<path d="M253.369 345.417L209.573 389.213V332.804L253.369 289.008V345.417Z" fill="#DFBB92" stroke="black" stroke-width="1.40147"/>
<path d="M327.102 378.408L326.854 330.593L330.322 327.125L378.385 327.125L391.268 340.008L375.908 355.368L367.98 347.44L360.547 354.873L339.241 333.566L331.561 341.246L352.867 362.553L345.683 369.737L353.61 377.665L339.984 391.291L327.102 378.408Z" fill="#821404" stroke="#821404" stroke-width="1.40147"/>
<path d="M370.705 393.273L357.327 379.895L365.254 371.967L357.079 363.791L363.272 357.598L371.448 365.773L378.88 358.341L392.259 371.719L384.826 379.152L393.498 387.823L387.304 394.016L378.633 385.345L370.705 393.273Z" stroke="black" stroke-width="1.40147"/>
<path d="M278.543 255.863L278.518 267.293L266.358 279.452L254.595 279.798L243.067 268.271L243.651 256.755L255.821 244.585L267.003 244.323L278.543 255.863Z" fill="#821404" stroke="#821404" stroke-width="1.17822"/>
</svg>
