<svg width="259.4" height="264" viewBox="0 0 525 532" fill="none" xmlns="http://www.w3.org/2000/svg">
<path d="M210 77.5L258 126H265L313.5 77.5V51.5H282.5V67.5H267.5V110.5H252V67.5H237.5V51.5H210V77.5Z" stroke="white" stroke-width="2"/>
<path d="M239 18.5V45.5H255V62H267.5V45.5H282.5V18.5H267.5V1H255V18.5H239Z" stroke="white" stroke-width="2"/>
<path d="M211 454L259 405.5H266L314.5 454V480H283.5V464H268.5V421H253V464H238.5V480H211V454Z" stroke="white" stroke-width="2"/>
<path d="M240 513V486H256V469.5H268.5V486H283.5V513H268.5V530.5H256V513H240Z" stroke="white" stroke-width="2"/>
<path d="M77.5 317L126 269L126 262L77.5 213.5L51.5 213.5L51.5 244.5L67.5 244.5L67.5 259.5L110.5 259.5L110.5 275L67.5 275L67.5 289.5L51.5 289.5L51.5 317L77.5 317Z" stroke="white" stroke-width="2"/>
<path d="M18.5 288L45.5 288L45.5 272L62 272L62 259.5L45.5 259.5L45.5 244.5L18.5 244.5L18.5 259.5L1 259.5L1 272L18.5 272L18.5 288Z" stroke="white" stroke-width="2"/>
<path d="M151.5 249.5L89 187H169.5L232 249.5H151.5Z" stroke="white" stroke-width="2"/>
<path d="M186.194 172.888V84.5L243.116 141.422V229.81L186.194 172.888Z" stroke="white" stroke-width="2"/>
<path d="M372.811 249.5L435.311 187H354.811L292.311 249.5H372.811Z" stroke="white" stroke-width="2"/>
<path d="M338.116 172.888V84.5L281.194 141.422V229.81L338.116 172.888Z" stroke="white" stroke-width="2"/>
<path d="M152.5 281.5L90 344H170.5L233 281.5H152.5Z" stroke="white" stroke-width="2"/>
<path d="M187.194 358.112V446.5L244.116 389.578V301.19L187.194 358.112Z" stroke="white" stroke-width="2"/>
<path d="M373.811 281.5L436.311 344H355.811L293.311 281.5H373.811Z" stroke="white" stroke-width="2"/>
<path d="M339.116 358.112V446.5L282.194 389.578V301.19L339.116 358.112Z" stroke="white" stroke-width="2"/>
<path d="M446.811 317L398.311 269L398.311 262L446.811 213.5L472.811 213.5L472.811 244.5L456.811 244.5L456.811 259.5L413.811 259.5L413.811 275L456.811 275L456.811 289.5L472.811 289.5L472.811 317L446.811 317Z" stroke="white" stroke-width="2"/>
<path d="M505.811 288L478.811 288L478.811 272L462.311 272L462.311 259.5L478.811 259.5L478.811 244.5L505.811 244.5L505.811 259.5L523.311 259.5L523.311 272L505.811 272L505.811 288Z" stroke="white" stroke-width="2"/>
<path d="M274.151 242.341L285.659 253.899V278.44L274.138 290.659H250.873L239.841 278.45V253.89L250.859 242.341H274.151Z" fill="none" stroke="white" stroke-width="1.68142"/>
</svg>
