<svg width="1183" height="271" viewBox="0 0 1183 271" fill="none" xmlns="http://www.w3.org/2000/svg">
<path d="M517.616 129.064L466.872 78.3197H532.231L582.975 129.064H517.616Z" fill="#DFBB92" stroke="#080808" stroke-width="1.62382"/>
<path d="M537.666 74.5754V2.81184L583.882 49.0276V120.791L537.666 74.5754Z" fill="#DFBB92" stroke="#080808" stroke-width="1.62382"/>
<path d="M664.572 129.064L715.317 78.3197H649.958L599.213 129.064H664.572Z" fill="#DFBB92" stroke="#080808" stroke-width="1.62382"/>
<path d="M644.775 74.5754V2.81184L598.559 49.0276V120.791L644.775 74.5754Z" fill="#DFBB92" stroke="#080808" stroke-width="1.62382"/>
<path d="M517.616 143.273L466.872 194.017H532.231L582.975 143.273H517.616Z" fill="#DFBB92" stroke="#080808" stroke-width="1.62382"/>
<path d="M537.666 196.796V268.559L583.882 222.344V150.58L537.666 196.796Z" fill="#DFBB92" stroke="#080808" stroke-width="1.62382"/>
<path d="M665.384 143.273L716.129 194.017H650.77L600.025 143.273H665.384Z" fill="#DFBB92" stroke="#080808" stroke-width="1.62382"/>
<path d="M645.587 196.796V268.559L599.371 222.344V150.58L645.587 196.796Z" fill="#DFBB92" stroke="#080808" stroke-width="1.62382"/>
<path d="M649.552 73.4483L711.257 11.7429" stroke="#080808" stroke-width="1.62382" stroke-linecap="round"/>
<path d="M663.354 59.6458V28.5323L688.524 2.81191V34.4765" stroke="#080808" stroke-width="1.62382" stroke-linecap="round"/>
<path d="M663.354 59.6458L694.468 59.6458L720.188 34.4765L688.524 34.4765" stroke="#080808" stroke-width="1.62382" stroke-linecap="round"/>
<rect x="711.257" y="2.81191" width="8.93104" height="8.93104" fill="#821404" stroke="#821404" stroke-width="1.62382"/>
<path d="M649.552 196.859L711.257 258.564" stroke="#080808" stroke-width="1.62382" stroke-linecap="round"/>
<path d="M663.354 210.661V241.775L688.524 267.495V235.831" stroke="#080808" stroke-width="1.62382" stroke-linecap="round"/>
<path d="M663.354 210.661L694.468 210.661L720.188 235.831L688.524 235.831" stroke="#080808" stroke-width="1.62382" stroke-linecap="round"/>
<rect x="0.811912" y="-0.811912" width="8.93104" height="8.93104" transform="matrix(1 0 0 -1 710.445 266.683)" fill="#821404" stroke="#821404" stroke-width="1.62382"/>
<path d="M534.26 75.0721L472.555 13.3668" stroke="#080808" stroke-width="1.62382" stroke-linecap="round"/>
<path d="M520.458 61.2696V30.1562L495.289 4.43574V36.1003" stroke="#080808" stroke-width="1.62382" stroke-linecap="round"/>
<path d="M520.458 61.2696L489.344 61.2696L463.624 36.1003L495.289 36.1003" stroke="#080808" stroke-width="1.62382" stroke-linecap="round"/>
<rect x="-0.811912" y="0.811912" width="8.93104" height="8.93104" transform="matrix(-1 0 0 1 471.743 3.62382)" fill="#821404" stroke="#821404" stroke-width="1.62382"/>
<path d="M533.448 196.859L471.743 258.564" stroke="#080808" stroke-width="1.62382" stroke-linecap="round"/>
<path d="M519.646 210.661V241.775L494.477 267.495V235.831" stroke="#080808" stroke-width="1.62382" stroke-linecap="round"/>
<path d="M519.646 210.661L488.533 210.661L462.812 235.831L494.477 235.831" stroke="#080808" stroke-width="1.62382" stroke-linecap="round"/>
<rect x="471.743" y="267.495" width="8.93104" height="8.93104" transform="rotate(180 471.743 267.495)" fill="#821404" stroke="#821404" stroke-width="1.62382"/>
<path d="M684.464 120.539L668.632 136.371L684.464 152.204H709.633L693.801 136.371L709.633 120.539H684.464Z" fill="#821404" stroke="#821404" stroke-width="1.62382" stroke-linecap="round"/>
<path d="M497.724 120.539L513.557 136.371L497.724 152.204H472.555L488.387 136.371L472.555 120.539H497.724Z" fill="#821404" stroke="#821404" stroke-width="1.62382" stroke-linecap="round"/>
<path d="M742.832 120L727 135.832L742.832 151.665H768.001L752.169 135.832L768.001 120H742.832Z" fill="#821404" stroke="#821404" stroke-width="1.62382" stroke-linecap="round"/>
<path d="M801.834 120L786.001 135.832L801.834 151.665H827.003L811.17 135.832L827.003 120H801.834Z" fill="#821404" stroke="#821404" stroke-width="1.62382" stroke-linecap="round"/>
<path d="M860.835 120L845.003 135.832L860.835 151.665H886.004L870.172 135.832L886.004 120H860.835Z" fill="#821404" stroke="#821404" stroke-width="1.62382" stroke-linecap="round"/>
<path d="M919.832 120L904 135.832L919.832 151.665H945.002L929.169 135.832L945.002 120H919.832Z" fill="#821404" stroke="#821404" stroke-width="1.62382" stroke-linecap="round"/>
<path d="M978.834 120L963.001 135.832L978.834 151.665H1004L988.171 135.832L1004 120H978.834Z" fill="#821404" stroke="#821404" stroke-width="1.62382" stroke-linecap="round"/>
<path d="M1037.84 120L1022 135.832L1037.84 151.665H1063L1047.17 135.832L1063 120H1037.84Z" fill="#821404" stroke="#821404" stroke-width="1.62382" stroke-linecap="round"/>
<path d="M1096.83 120L1081 135.832L1096.83 151.665H1122L1106.17 135.832L1122 120H1096.83Z" fill="#821404" stroke="#821404" stroke-width="1.62382" stroke-linecap="round"/>
<path d="M1155.83 120L1140 135.832L1155.83 151.665H1181L1165.17 135.832L1181 120H1155.83Z" fill="#821404" stroke="#821404" stroke-width="1.62382" stroke-linecap="round"/>
<path d="M440.173 121L456.005 136.832L440.173 152.665H415.003L430.836 136.832L415.003 121H440.173Z" fill="#821404" stroke="#821404" stroke-width="1.62382" stroke-linecap="round"/>
<path d="M381.171 121L397.003 136.832L381.171 152.665H356.002L371.834 136.832L356.002 121H381.171Z" fill="#821404" stroke="#821404" stroke-width="1.62382" stroke-linecap="round"/>
<path d="M322.169 121L338.002 136.832L322.169 152.665H297L312.832 136.832L297 121H322.169Z" fill="#821404" stroke="#821404" stroke-width="1.62382" stroke-linecap="round"/>
<path d="M263.172 121L279.005 136.832L263.172 152.665H238.003L253.835 136.832L238.003 121H263.172Z" fill="#821404" stroke="#821404" stroke-width="1.62382" stroke-linecap="round"/>
<path d="M204.171 121L220.003 136.832L204.171 152.665H179.002L194.834 136.832L179.002 121H204.171Z" fill="#821404" stroke="#821404" stroke-width="1.62382" stroke-linecap="round"/>
<path d="M145.169 121L161.001 136.832L145.169 152.665H120L135.832 136.832L120 121H145.169Z" fill="#821404" stroke="#821404" stroke-width="1.62382" stroke-linecap="round"/>
<path d="M86.1714 121L102.004 136.832L86.1714 152.665H61.0021L76.8344 136.832L61.0021 121H86.1714Z" fill="#821404" stroke="#821404" stroke-width="1.62382" stroke-linecap="round"/>
<path d="M27.1699 121L43.0022 136.832L27.1699 152.665H2.00063L17.8329 136.832L2.00063 121H27.1699Z" fill="#821404" stroke="#821404" stroke-width="1.62382" stroke-linecap="round"/>
</svg>
