<svg width="21" height="11" viewBox="0 0 21 11" fill="none" xmlns="http://www.w3.org/2000/svg">
<path d="M10.3253 -6.10352e-05C12.3211 -6.10352e-05 14.2149 0.454373 15.9089 1.2655C17.6665 2.10711 19.2039 3.33216 20.4123 4.8317C20.5711 5.02875 20.6505 5.26433 20.6505 5.49999C20.6505 5.73578 20.5711 5.9712 20.4123 6.16829C19.2039 7.66783 17.6665 8.89292 15.9089 9.73449C14.2149 10.5457 12.3211 11 10.3253 11C8.32955 11 6.43567 10.5457 4.74159 9.73449C2.98415 8.89292 1.4467 7.66783 0.238302 6.16829C0.0794476 5.9712 0 5.73566 0 5.49999C0 5.26433 0.0794476 5.02875 0.238302 4.8317C1.4467 3.33216 2.98415 2.10711 4.74159 1.2655C6.43567 0.454373 8.32955 -6.10352e-05 10.3253 -6.10352e-05ZM10.3253 1.21959C9.14319 1.21959 8.07312 1.69875 7.2985 2.47324C6.52397 3.24777 6.04486 4.31797 6.04486 5.49999C6.04486 6.68202 6.52397 7.75222 7.29859 8.52675C8.07312 9.30132 9.14319 9.78044 10.3253 9.78044C11.5073 9.78044 12.5774 9.30132 13.3521 8.52679C14.1266 7.75222 14.6057 6.68202 14.6057 5.49999C14.6057 4.31797 14.1266 3.24777 13.3521 2.47324C12.5774 1.69863 11.5073 1.21959 10.3253 1.21959Z" fill="#7886C7"/>
</svg>
