<svg width="128" height="85" viewBox="0 0 128 85" fill="none" xmlns="http://www.w3.org/2000/svg">
<path d="M115.492 26.1444L109.718 20.3715C109.415 20.0625 109.053 19.8166 108.654 19.648C108.255 19.4795 107.827 19.3917 107.394 19.3897C106.961 19.3877 106.532 19.4715 106.131 19.6363C105.731 19.8011 105.367 20.0436 105.061 20.3498C104.755 20.656 104.512 21.0199 104.347 21.4204C104.182 21.8209 104.099 22.25 104.101 22.6831C104.103 23.1161 104.19 23.5445 104.359 23.9434C104.528 24.3424 104.773 24.704 105.082 25.0073L118.992 38.9181C119.61 39.5157 120.439 39.8466 121.299 39.8392C122.159 39.8319 122.982 39.487 123.59 38.8789C124.198 38.2707 124.543 37.448 124.55 36.588C124.558 35.728 124.227 34.8996 123.629 34.2811L120.129 30.7813M107.533 27.3701L112.081 22.8219" stroke="#821404" stroke-width="1.5" stroke-linecap="round"/>
<path d="M119.017 18.6231C119.058 18.5201 119.128 18.4316 119.219 18.3692C119.31 18.3068 119.418 18.2734 119.529 18.2734C119.64 18.2734 119.748 18.3068 119.839 18.3692C119.93 18.4316 120.001 18.5201 120.041 18.6231L120.53 19.8682C120.557 19.9387 120.598 20.0028 120.652 20.0564C120.705 20.1101 120.769 20.1521 120.839 20.1797L122.079 20.671C122.182 20.7119 122.27 20.7827 122.332 20.8742C122.394 20.9657 122.428 21.0738 122.428 21.1843C122.428 21.2949 122.394 21.403 122.332 21.4945C122.27 21.586 122.182 21.6568 122.079 21.6977L120.84 22.1889C120.77 22.2175 120.707 22.2597 120.654 22.313C120.6 22.3663 120.558 22.4296 120.53 22.4993L120.041 23.7433C120.001 23.8463 119.93 23.9348 119.839 23.9972C119.748 24.0596 119.64 24.093 119.529 24.093C119.418 24.093 119.31 24.0596 119.219 23.9972C119.128 23.9348 119.058 23.8463 119.017 23.7433L118.528 22.4982C118.5 22.4285 118.458 22.3651 118.404 22.3118C118.351 22.2585 118.288 22.2164 118.218 22.1878L116.979 21.6966C116.876 21.6557 116.788 21.5849 116.726 21.4933C116.664 21.4018 116.63 21.2938 116.63 21.1832C116.63 21.0726 116.664 20.9646 116.726 20.8731C116.788 20.7815 116.876 20.7107 116.979 20.6698L118.218 20.1786C118.288 20.1499 118.351 20.1076 118.405 20.0541C118.458 20.0006 118.5 19.937 118.528 19.8671L119.017 18.6231ZM123.414 26.3813C123.455 26.2782 123.525 26.1897 123.616 26.1273C123.707 26.0649 123.815 26.0316 123.926 26.0316C124.037 26.0316 124.145 26.0649 124.236 26.1273C124.327 26.1897 124.398 26.2782 124.438 26.3813L124.615 26.8349C124.672 26.9771 124.783 27.0896 124.925 27.1454L125.378 27.325C125.48 27.3661 125.568 27.4369 125.63 27.5283C125.692 27.6197 125.725 27.7275 125.725 27.8378C125.725 27.9481 125.692 28.0559 125.63 28.1473C125.568 28.2387 125.48 28.3095 125.378 28.3506L124.925 28.5303C124.856 28.5589 124.792 28.601 124.739 28.6543C124.686 28.7076 124.644 28.771 124.615 28.8407L124.438 29.2955C124.398 29.3985 124.327 29.487 124.236 29.5494C124.145 29.6118 124.037 29.6452 123.926 29.6452C123.815 29.6452 123.707 29.6118 123.616 29.5494C123.525 29.487 123.455 29.3985 123.414 29.2955L123.236 28.8407C123.207 28.7711 123.165 28.7078 123.112 28.6545C123.059 28.6012 122.996 28.559 122.927 28.5303L122.474 28.3506C122.372 28.3095 122.284 28.2387 122.222 28.1473C122.16 28.0559 122.127 27.9481 122.127 27.8378C122.127 27.7275 122.16 27.6197 122.222 27.5283C122.284 27.4369 122.372 27.3661 122.474 27.325L122.927 27.1454C122.996 27.1166 123.059 27.0744 123.112 27.0211C123.165 26.9679 123.207 26.9046 123.236 26.8349L123.414 26.3813ZM106.547 33.4048C106.587 33.3018 106.658 33.2133 106.749 33.1509C106.84 33.0885 106.948 33.0552 107.059 33.0552C107.17 33.0552 107.278 33.0885 107.369 33.1509C107.46 33.2133 107.53 33.3018 107.571 33.4048L107.749 33.8597C107.776 33.93 107.818 33.9938 107.871 34.0473C107.924 34.1007 107.988 34.1425 108.058 34.1701L108.511 34.3486C108.614 34.3895 108.702 34.4603 108.764 34.5518C108.826 34.6434 108.859 34.7514 108.859 34.862C108.859 34.9726 108.826 35.0806 108.764 35.1721C108.702 35.2636 108.614 35.3344 108.511 35.3754L108.058 35.555C107.988 35.5826 107.924 35.6244 107.871 35.6778C107.818 35.7313 107.776 35.7951 107.749 35.8654L107.571 36.3203C107.53 36.4233 107.46 36.5118 107.369 36.5742C107.278 36.6366 107.17 36.6699 107.059 36.6699C106.948 36.6699 106.84 36.6366 106.749 36.5742C106.658 36.5118 106.587 36.4233 106.547 36.3203L106.369 35.8654C106.341 35.7951 106.3 35.7313 106.247 35.6778C106.193 35.6244 106.13 35.5826 106.059 35.555L105.607 35.3754C105.504 35.3344 105.416 35.2636 105.354 35.1721C105.292 35.0806 105.259 34.9726 105.259 34.862C105.259 34.7514 105.292 34.6434 105.354 34.5518C105.416 34.4603 105.504 34.3895 105.607 34.3486L106.059 34.1701C106.13 34.1424 106.194 34.1004 106.247 34.0468C106.3 33.9931 106.342 33.929 106.369 33.8585L106.547 33.4048Z" stroke="#821404"/>
<g clip-path="url(#clip0_1275_2128)">
<path d="M59.3012 55.7015L71.1265 65.468L86.8937 45.9351M73.0974 83.0476C69.4739 83.0476 65.8859 82.3402 62.5382 80.966C59.1905 79.5917 56.1488 77.5774 53.5866 75.0381C51.0243 72.4988 48.9919 69.4842 47.6052 66.1664C46.2186 62.8486 45.5049 59.2927 45.5049 55.7015C45.5049 52.1104 46.2186 48.5544 47.6052 45.2366C48.9919 41.9189 51.0243 38.9043 53.5866 36.3649C56.1488 33.8256 59.1905 31.8113 62.5382 30.4371C65.8859 29.0628 69.4739 28.3555 73.0974 28.3555C80.4154 28.3555 87.4337 31.2366 92.6083 36.3649C97.7829 41.4933 100.69 48.4489 100.69 55.7015C100.69 62.9541 97.7829 69.9097 92.6083 75.0381C87.4337 80.1665 80.4154 83.0476 73.0974 83.0476Z" stroke="#821404" stroke-width="4.33333"/>
</g>
<g clip-path="url(#clip1_1275_2128)">
<path d="M18.0544 15.4782C16.0589 16.9287 15.0621 17.6546 15.1605 18.6081C15.2589 19.5616 16.3911 20.1123 18.6534 21.2124L19.2382 21.4968C19.8805 21.81 20.2011 21.9675 20.4297 22.2333C20.6599 22.4987 20.7702 22.8448 20.9926 23.5364L21.1941 24.1659C21.9733 26.6003 22.3638 27.8173 23.2757 28.0394C24.1876 28.2616 25.0175 27.3425 26.677 25.5028L27.1067 25.0265C27.5782 24.5033 27.813 24.241 28.1256 24.108C28.4381 23.9749 28.7895 23.9809 29.493 23.9962L30.1338 24.0101C32.61 24.0637 33.8481 24.0904 34.3112 23.2749C34.776 22.459 34.1575 21.3397 32.9226 19.1024M32.5198 15.225C33.2714 12.8244 33.6455 11.6245 33.0208 10.8965C32.3968 10.1717 31.1833 10.3985 28.7607 10.8561L28.1326 10.974C27.4451 11.1036 27.1013 11.1684 26.7672 11.087C26.4331 11.0056 26.1473 10.7872 25.5757 10.3505L25.054 9.95306C23.0425 8.41517 22.0349 7.64582 21.1842 8.01252C20.3355 8.38043 20.2034 9.64009 19.9412 12.1606" stroke="#821404" stroke-width="1.5" stroke-linecap="round"/>
<path d="M15.1045 18.6192C12.0114 22.3626 10.4539 28.4159 14.3472 37.4456C14.6831 33.1832 17.8988 29.0225 21.9999 26.3705" stroke="#821404" stroke-width="1.5" stroke-linecap="round" stroke-linejoin="round"/>
<path d="M23.3343 31.6976C23.3343 31.6976 24.94 33.697 26.4073 34.1557C27.8733 34.6095 30.3282 33.87 30.3282 33.87C30.3282 33.87 28.3284 35.4741 27.8698 36.9413C27.4144 38.4078 28.1559 40.8639 28.1559 40.8639C28.1559 40.8639 26.5502 38.8645 25.0829 38.4059C23.6189 37.9533 21.1619 38.6915 21.1619 38.6915C21.1619 38.6915 23.1618 37.0875 23.6204 35.6202C24.0758 34.1538 23.3343 31.6976 23.3343 31.6976ZM36.2615 26.683C36.2615 26.683 35.958 28.3655 35.2438 29.0993C34.5296 29.8331 32.8549 30.1804 32.8549 30.1804C32.8549 30.1804 34.5373 30.484 35.2711 31.1982C36.0049 31.9124 36.3523 33.5871 36.3523 33.5871C36.3523 33.5871 36.6559 31.9046 37.37 31.1708C38.0842 30.437 39.759 30.0897 39.759 30.0897C39.759 30.0897 38.0765 29.7861 37.3427 29.0719C36.6089 28.3577 36.2615 26.683 36.2615 26.683Z" stroke="#821404" stroke-linejoin="round"/>
</g>
<defs>
<clipPath id="clip0_1275_2128">
<rect width="59.1269" height="58.5987" fill="white" transform="translate(43.5332 26.4014)"/>
</clipPath>
<clipPath id="clip1_1275_2128">
<rect width="40.2843" height="40.2843" fill="white" transform="translate(0 9.91504) rotate(-14.2489)"/>
</clipPath>
</defs>
</svg>
