<svg width="195" height="227" viewBox="0 0 195 227" fill="none" xmlns="http://www.w3.org/2000/svg">
<line y1="-0.514739" x2="227" y2="-0.514739" transform="matrix(-4.37114e-08 -1 -1 4.37114e-08 97.2715 227)" stroke="black" stroke-width="1.02948"/>
<line y1="-0.514739" x2="76.6323" y2="-0.514739" transform="matrix(1 -8.74956e-08 -8.735e-08 -1 58.6982 183.762)" stroke="black" stroke-width="1.02948"/>
<line y1="-0.514739" x2="8.23583" y2="-0.514739" transform="matrix(-4.37114e-08 1 1 4.37114e-08 66.3872 184.277)" stroke="black" stroke-width="1.02948"/>
<line y1="-0.514739" x2="9.78005" y2="-0.514739" transform="matrix(4.37114e-08 1 1 -4.37114e-08 71.5342 184.277)" stroke="black" stroke-width="1.02948"/>
<line y1="-0.514739" x2="10.8095" y2="-0.514739" transform="matrix(4.37114e-08 1 1 -4.37114e-08 76.6816 184.277)" stroke="black" stroke-width="1.02948"/>
<line y1="-0.514739" x2="13.898" y2="-0.514739" transform="matrix(4.37114e-08 1 1 -4.37114e-08 81.8291 184.277)" stroke="black" stroke-width="1.02948"/>
<line y1="-0.514739" x2="19.5601" y2="-0.514739" transform="matrix(4.37114e-08 1 1 -4.37114e-08 86.9766 184.277)" stroke="black" stroke-width="1.02948"/>
<line y1="-0.514739" x2="27.7959" y2="-0.514739" transform="matrix(4.37114e-08 1 1 -4.37114e-08 92.124 184.277)" stroke="black" stroke-width="1.02948"/>
<line x1="128.671" y1="184.277" x2="128.671" y2="192.512" stroke="black" stroke-width="1.02948"/>
<line x1="123.523" y1="184.277" x2="123.523" y2="194.057" stroke="black" stroke-width="1.02948"/>
<line x1="118.376" y1="184.277" x2="118.376" y2="195.086" stroke="black" stroke-width="1.02948"/>
<line x1="113.228" y1="184.277" x2="113.228" y2="198.175" stroke="black" stroke-width="1.02948"/>
<line x1="108.081" y1="184.277" x2="108.081" y2="203.837" stroke="black" stroke-width="1.02948"/>
<line x1="102.934" y1="184.277" x2="102.934" y2="212.073" stroke="black" stroke-width="1.02948"/>
<rect x="-0.727648" width="38.5889" height="38.5889" transform="matrix(-0.706812 -0.707401 -0.706812 0.707401 124.592 109.267)" fill="#FBF7F1" stroke="black" stroke-width="1.02948"/>
<path d="M99.0659 109.236L124.887 83.3938" stroke="black" stroke-width="1.02948"/>
<path d="M124.886 83.3936C124.886 83.3936 128.341 80.2998 124.341 76.2961C120.522 72.4746 117.529 73.875 118.159 77.0242C118.704 79.7541 121.977 78.6619 121.977 78.6619" stroke="black" stroke-width="1.02948" stroke-linecap="round"/>
<path d="M124.523 83.7577C124.523 83.7577 127.542 80.228 131.543 84.2318C135.361 88.0533 133.962 91.049 130.815 90.4192C128.088 89.8732 129.179 86.5976 129.179 86.5976" stroke="black" stroke-width="1.02948" stroke-linecap="round"/>
<path d="M99.0654 109.236L73.2447 135.079" stroke="black" stroke-width="1.02948"/>
<path d="M73.2445 135.078C73.2445 135.078 70.1532 138.536 66.1528 134.532C62.3345 130.711 63.7338 127.715 66.8804 128.345C69.6079 128.891 68.5167 132.166 68.5167 132.166" stroke="black" stroke-width="1.02948" stroke-linecap="round"/>
<path d="M73.6088 134.715C73.6088 134.715 70.082 137.736 74.0824 141.74C77.9008 145.562 80.894 144.161 80.2646 141.012C79.7191 138.282 76.4463 139.374 76.4463 139.374" stroke="black" stroke-width="1.02948" stroke-linecap="round"/>
<path d="M98.4058 110.049L72.585 84.2066" stroke="black" stroke-width="1.02948"/>
<path d="M72.5848 84.2068C72.5848 84.2068 69.4936 80.749 65.4932 84.7527C61.6748 88.5742 63.0741 91.5699 66.2207 90.9401C68.9483 90.3941 67.857 87.1185 67.857 87.1185" stroke="black" stroke-width="1.02948" stroke-linecap="round"/>
<path d="M72.9491 84.5705C72.9491 84.5705 69.4223 81.5486 73.4227 77.5449C77.2411 73.7234 80.2343 75.1238 79.605 78.273C79.0595 81.0029 75.7866 79.9107 75.7866 79.9107" stroke="black" stroke-width="1.02948" stroke-linecap="round"/>
<path d="M98.4058 110.049L124.227 135.891" stroke="black" stroke-width="1.02948"/>
<path d="M124.226 135.891C124.226 135.891 127.681 138.985 123.681 142.989C119.862 146.81 116.869 145.41 117.498 142.26C118.044 139.531 121.317 140.623 121.317 140.623" stroke="black" stroke-width="1.02948" stroke-linecap="round"/>
<path d="M123.863 135.527C123.863 135.527 126.882 139.057 130.883 135.053C134.701 131.231 133.302 128.236 130.155 128.866C127.428 129.412 128.519 132.687 128.519 132.687" stroke="black" stroke-width="1.02948" stroke-linecap="round"/>
<line y1="-0.514739" x2="69.9463" y2="-0.514739" transform="matrix(1 -8.74228e-08 -8.74228e-08 -1 124.53 109.125)" stroke="black" stroke-width="1.02948"/>
<rect x="0.514739" y="-0.514739" width="17.4857" height="16.4717" rx="0.514739" transform="matrix(1 0 0 -1 164.646 117.361)" stroke="black" stroke-width="1.02948"/>
<line y1="-0.514739" x2="35.517" y2="-0.514739" transform="matrix(-4.37114e-08 -1 -1 4.37114e-08 173.39 128.17)" stroke="black" stroke-width="1.02948"/>
<line x1="70.5273" y1="109.639" x2="0.581093" y2="109.639" stroke="black" stroke-width="1.02948"/>
<rect x="29.8964" y="117.875" width="17.4857" height="16.4717" rx="0.514739" transform="rotate(180 29.8964 117.875)" stroke="black" stroke-width="1.02948"/>
<line x1="21.1532" y1="128.17" x2="21.1532" y2="92.6531" stroke="black" stroke-width="1.02948"/>
<line y1="-0.514739" x2="55.5456" y2="-0.514739" transform="matrix(1 -8.74956e-08 -8.735e-08 -1 70.5273 38.0907)" stroke="black" stroke-width="1.02948"/>
<line y1="-0.514739" x2="18.0159" y2="-0.514739" transform="matrix(-4.37114e-08 -1 -1 4.37114e-08 76.1846 47.356)" stroke="black" stroke-width="1.02948"/>
<line y1="-0.514739" x2="18.0159" y2="-0.514739" transform="matrix(-4.37114e-08 -1 -1 4.37114e-08 118.358 47.356)" stroke="black" stroke-width="1.02948"/>
</svg>
