<svg width="40" height="40" viewBox="0 0 40 40" fill="none" xmlns="http://www.w3.org/2000/svg">
<path fill-rule="evenodd" clip-rule="evenodd" d="M13.46 12.0999L13.6183 12.2382L27.7617 26.3799C27.947 26.5651 28.0861 26.7913 28.1677 27.0404C28.2492 27.2894 28.2709 27.5541 28.231 27.8131C28.191 28.072 28.0906 28.3179 27.9378 28.5308C27.785 28.7436 27.5842 28.9175 27.3517 29.0382L27.1583 29.1216L9.85001 35.4999C6.59668 36.6999 3.42834 33.6416 4.41668 30.3932L4.50001 30.1499L10.8767 12.8416C10.961 12.6123 11.0947 12.4043 11.2682 12.2325C11.4418 12.0606 11.6511 11.9289 11.8811 11.8469C12.1112 11.7648 12.3566 11.7344 12.5997 11.7576C12.8429 11.7809 13.078 11.8574 13.2883 11.9816L13.46 12.0999ZM13.1033 16.4366L7.62834 31.3032C7.57744 31.4415 7.56414 31.5909 7.58978 31.736C7.61542 31.8812 7.6791 32.0169 7.77432 32.1294C7.86954 32.2419 7.99289 32.3271 8.13179 32.3764C8.2707 32.4257 8.42018 32.4372 8.56501 32.4099L8.69834 32.3716L23.5617 26.8949L13.1033 16.4366ZM28.5117 19.3399C30.03 19.4199 32.1117 19.7399 33.9217 20.8266C34.2886 21.0441 34.5582 21.394 34.6748 21.8044C34.7915 22.2147 34.7464 22.6541 34.5489 23.0322C34.3513 23.4102 34.0163 23.6981 33.6128 23.8366C33.2093 23.9751 32.7681 23.9536 32.38 23.7766L32.2067 23.6849C31.07 23.0016 29.6167 22.7349 28.3367 22.6682C27.8092 22.6391 27.2805 22.6413 26.7533 22.6749L26.2267 22.7266C25.7919 22.7827 25.3525 22.6652 25.0037 22.3997C24.655 22.1341 24.4248 21.7418 24.3632 21.3078C24.3016 20.8738 24.4135 20.4329 24.6747 20.0808C24.9358 19.7287 25.3251 19.4936 25.7583 19.4266C26.6712 19.3088 27.5932 19.2792 28.5117 19.3382M31.8867 14.6949C32.3113 14.6958 32.7196 14.8587 33.0282 15.1505C33.3368 15.4422 33.5224 15.8408 33.547 16.2647C33.5717 16.6887 33.4336 17.106 33.161 17.4316C32.8883 17.7572 32.5017 17.9664 32.08 18.0166L31.8867 18.0282H30.7067C30.282 18.0273 29.8737 17.8644 29.5651 17.5726C29.2566 17.2809 29.071 16.8823 29.0463 16.4584C29.0216 16.0345 29.1597 15.6171 29.4324 15.2915C29.705 14.9659 30.0917 14.7567 30.5133 14.7066L30.7067 14.6949H31.8867ZM26.5833 13.4166C26.8703 13.7035 27.0427 14.0854 27.0682 14.4904C27.0936 14.8955 26.9704 15.2959 26.7217 15.6166L26.5833 15.7732L24.8167 17.5416C24.5174 17.8436 24.1141 18.0199 23.6891 18.0344C23.2641 18.0488 22.8497 17.9002 22.5307 17.6191C22.2117 17.338 22.0122 16.9456 21.973 16.5222C21.9338 16.0988 22.058 15.6764 22.32 15.3416L22.4583 15.1849L24.225 13.4182C24.3798 13.2633 24.5636 13.1403 24.7659 13.0565C24.9683 12.9726 25.1852 12.9294 25.4042 12.9294C25.6232 12.9294 25.8401 12.9726 26.0424 13.0565C26.2447 13.1403 26.4286 13.2616 26.5833 13.4166ZM22.2717 4.64156C23.0183 6.88489 22.6183 9.34156 22.1517 11.0582C21.8724 12.1288 21.4871 13.169 21.0017 14.1632C20.8043 14.5588 20.4579 14.8598 20.0386 15C19.6193 15.1402 19.1615 15.1081 18.7658 14.9107C18.3702 14.7134 18.0692 14.3669 17.929 13.9476C17.7889 13.5283 17.821 13.0705 18.0183 12.6749C18.4061 11.8764 18.7132 11.0411 18.935 10.1816C19.3133 8.79489 19.5033 7.28989 19.2117 6.05656L19.11 5.69656C19.0374 5.48812 19.0069 5.26734 19.0203 5.04701C19.0336 4.82669 19.0907 4.61123 19.188 4.41312C19.2853 4.21501 19.4211 4.03822 19.5873 3.89299C19.7535 3.74777 19.9469 3.63701 20.1563 3.56714C20.3657 3.49727 20.5869 3.46969 20.807 3.486C21.0271 3.50231 21.2418 3.56218 21.4386 3.66213C21.6354 3.76209 21.8104 3.90014 21.9534 4.06827C22.0964 4.2364 22.2046 4.43127 22.2717 4.64156ZM31.2967 8.70489C31.6091 9.01744 31.7847 9.44128 31.7847 9.88322C31.7847 10.3252 31.6091 10.749 31.2967 11.0616L30.1183 12.2399C29.9646 12.3991 29.7807 12.526 29.5774 12.6134C29.374 12.7007 29.1553 12.7467 28.934 12.7486C28.7127 12.7506 28.4932 12.7084 28.2884 12.6246C28.0836 12.5408 27.8975 12.417 27.741 12.2605C27.5845 12.1041 27.4608 11.918 27.377 11.7131C27.2932 11.5083 27.251 11.2889 27.2529 11.0676C27.2549 10.8463 27.3008 10.6276 27.3882 10.4242C27.4755 10.2209 27.6025 10.037 27.7617 9.88322L28.94 8.70489C29.2526 8.39244 29.6764 8.21691 30.1183 8.21691C30.5603 8.21691 30.9841 8.39244 31.2967 8.70489Z" fill="#2D336B"/>
</svg>
