<svg width="19" height="19" viewBox="0 0 19 19" fill="none" xmlns="http://www.w3.org/2000/svg">
<path d="M16.172 4.00049C16.172 3.73542 16.0664 3.48097 15.879 3.29346L15.7072 3.12158C15.5196 2.93411 15.2653 2.82861 15.0001 2.82861C14.735 2.82861 14.4806 2.93411 14.2931 3.12158L13.4142 4.00049L15.0001 5.58643L15.879 4.70752C16.0664 4.52006 16.1719 4.26554 16.172 4.00049ZM18.0001 17.0005L18.1027 17.0054C18.6068 17.0567 19.0001 17.4828 19.0001 18.0005C19 18.518 18.6067 18.9433 18.1027 18.9946L18.0001 19.0005H10.0001C9.44796 19.0005 9.0003 18.5526 9.00014 18.0005C9.00014 17.4482 9.44786 17.0005 10.0001 17.0005H18.0001ZM2.90249 14.5122L2.37319 16.6255L4.4894 16.0962L13.5861 7.00049L12.0001 5.41455L2.90249 14.5122ZM18.172 4.00049C18.1719 4.79587 17.8555 5.55907 17.2931 6.12158L5.70717 17.7075C5.57904 17.8356 5.41809 17.9263 5.24233 17.9702L1.24233 18.9702C0.901711 19.0553 0.541413 18.9557 0.29311 18.7075C0.0447298 18.4591 -0.0547789 18.0981 0.0304148 17.7573L1.03041 13.7573L1.07143 13.6284C1.12153 13.5033 1.19715 13.3895 1.29311 13.2935L12.879 1.70752V1.70654C13.4416 1.14423 14.2047 0.828613 15.0001 0.828613C15.7956 0.828613 16.5587 1.14424 17.1212 1.70654V1.70752L17.2931 1.87939C17.8555 2.44198 18.172 3.205 18.172 4.00049Z" fill="#2D336B"/>
</svg>
