<svg width="21" height="11" viewBox="0 0 21 11" fill="none" xmlns="http://www.w3.org/2000/svg">
  <path
    d="M10.3253 0C12.3211 0 14.2149 0.454434 15.9089 1.26556C17.6665 2.10717 19.2039 3.33222 20.4123 4.83176C20.5711 5.02881 20.6505 5.26439 20.6505 5.50006C20.6505 5.73584 20.5711 5.97126 20.4123 6.16835C19.2039 7.66789 17.6665 8.89298 15.9089 9.73455C14.2149 10.5457 12.3211 11.0001 10.3253 11.0001C8.32955 11.0001 6.43567 10.5457 4.74159 9.73455C2.98415 8.89298 1.4467 7.66789 0.238302 6.16835C0.0794476 5.97126 0 5.73572 0 5.50006C0 5.26439 0.0794476 5.02881 0.238302 4.83176C1.4467 3.33222 2.98415 2.10717 4.74159 1.26556C6.43567 0.454434 8.32955 0 10.3253 0ZM10.3253 1.21965C9.14319 1.21965 8.07312 1.69881 7.2985 2.4733C6.52397 3.24783 6.04486 4.31803 6.04486 5.50006C6.04486 6.68209 6.52397 7.75228 7.29859 8.52681C8.07312 9.30138 9.14319 9.7805 10.3253 9.7805C11.5073 9.7805 12.5774 9.30138 13.3521 8.52685C14.1266 7.75228 14.6057 6.68209 14.6057 5.50006C14.6057 4.31803 14.1266 3.24783 13.3521 2.4733C12.5774 1.69869 11.5073 1.21965 10.3253 1.21965Z"
    fill="currentColor" />
  <path fill-rule="evenodd" clip-rule="evenodd"
    d="M10.9215 2.80089C10.0219 2.60066 9.04229 2.8526 8.34544 3.55547C7.26638 4.64392 7.27384 6.40108 8.36221 7.48026C9.45066 8.55931 11.2078 8.55181 12.287 7.46336C12.9838 6.76057 13.2273 5.77889 13.0195 4.88095C12.4366 5.20673 11.686 5.12378 11.1881 4.63012C10.6902 4.13641 10.6007 3.38656 10.9215 2.80089Z"
    fill="currentColor" />
</svg>