<svg width="24" height="24" viewBox="0 0 24 24" fill="none" xmlns="http://www.w3.org/2000/svg">
<path fill-rule="evenodd" clip-rule="evenodd" d="M4.22206 5.36381C5.23344 4.35219 6.57297 3.73521 7.99913 3.62409C9.42528 3.51298 10.8442 3.91505 12.0001 4.75781C13.2213 3.87423 14.7303 3.48252 16.2271 3.66054C17.7239 3.83855 19.0989 4.57326 20.0789 5.71862C21.0588 6.86398 21.5719 8.33613 21.5162 9.84246C21.4604 11.3488 20.84 12.779 19.7781 13.8488L14.1211 19.5058C13.5585 20.0682 12.7956 20.3842 12.0001 20.3842C11.2046 20.3842 10.4416 20.0682 9.87906 19.5058L4.22206 13.8498C3.09693 12.7246 2.46484 11.1985 2.46484 9.60731C2.46484 8.01608 3.09693 6.48901 4.22206 5.36381Z" fill="#2D336B"/>
</svg>
