<svg width="24" height="24" viewBox="0 0 24 24" fill="none" xmlns="http://www.w3.org/2000/svg">
<path d="M19.0712 13.1418L13.4142 18.7998C13.0391 19.1747 12.5305 19.3854 12.0002 19.3854C11.4699 19.3854 10.9613 19.1747 10.5862 18.7998L4.9292 13.1428C4.46157 12.6792 4.09011 12.1279 3.83613 11.5204C3.58216 10.9129 3.45067 10.2612 3.44923 9.60275C3.44779 8.9443 3.57642 8.29204 3.82773 7.68344C4.07904 7.07483 4.44809 6.52186 4.91368 6.05626C5.37928 5.59067 5.93225 5.22162 6.54086 4.97031C7.14947 4.71899 7.80172 4.59037 8.46017 4.59181C9.11862 4.59325 9.7703 4.72473 10.3778 4.97871C10.9853 5.23268 11.5367 5.60415 12.0002 6.07178C12.9418 5.15365 14.2071 4.64345 15.5222 4.65169C16.8373 4.65993 18.0962 5.18595 19.0262 6.1158C19.9562 7.04566 20.4824 8.30447 20.4908 9.61955C20.4992 10.9346 19.9892 12.2001 19.0712 13.1418Z" stroke="#2D336B" stroke-width="2" stroke-linecap="round" stroke-linejoin="round"/>
</svg>
