<svg width="16" height="16" viewBox="0 0 16 16" fill="none" xmlns="http://www.w3.org/2000/svg">
<path d="M1.5 8C1.5 4.41 4.41 1.5 8 1.5C11.59 1.5 14.5 4.41 14.5 8C14.5 11.59 11.59 14.5 8 14.5C4.41 14.5 1.5 11.59 1.5 8ZM9 5.33333C9.00004 5.24109 8.97457 5.15063 8.9264 5.07197C8.87822 4.99331 8.80923 4.9295 8.72704 4.88762C8.64486 4.84573 8.55269 4.8274 8.46073 4.83464C8.36877 4.84189 8.28061 4.87443 8.206 4.92867L6.37267 6.262C6.26534 6.33997 6.19339 6.45739 6.17264 6.58841C6.15188 6.71944 6.18403 6.85334 6.262 6.96067C6.33997 7.06799 6.45739 7.13994 6.58841 7.1607C6.71944 7.18145 6.85334 7.14931 6.96067 7.07133L8.00067 6.31533V10.6667C8.00067 10.7993 8.05335 10.9265 8.14711 11.0202C8.24088 11.114 8.36806 11.1667 8.50067 11.1667C8.63328 11.1667 8.76045 11.114 8.85422 11.0202C8.94799 10.9265 9.00067 10.7993 9.00067 10.6667L9 5.33333Z" fill="#ECE05B"/>
</svg>
