<svg width="16" height="16" viewBox="0 0 16 16" fill="none" xmlns="http://www.w3.org/2000/svg">
<path d="M7.04321 1.38321C7.34195 1.24055 7.66882 1.1665 7.99988 1.1665C8.33093 1.1665 8.6578 1.24055 8.95654 1.38321C9.21921 1.50921 9.45988 1.71454 9.79654 2.00188L9.84921 2.04588C10.1692 2.31921 10.4752 2.44854 10.9025 2.48254L10.9705 2.48788C11.4119 2.52321 11.7272 2.54788 12.0019 2.64521C12.314 2.7555 12.5976 2.93421 12.8318 3.16825C13.0659 3.4023 13.2448 3.68576 13.3552 3.99788C13.4519 4.27254 13.4765 4.58788 13.5119 5.02921L13.5172 5.09721C13.5512 5.52454 13.6812 5.83054 13.9539 6.15054L13.9979 6.20254C14.2852 6.53988 14.4912 6.78054 14.6165 7.04321C14.7592 7.34195 14.8332 7.66882 14.8332 7.99988C14.8332 8.33093 14.7592 8.6578 14.6165 8.95654C14.4905 9.21921 14.2852 9.45988 13.9979 9.79654L13.9539 9.84921C13.6752 10.1759 13.5505 10.4832 13.5172 10.9025L13.5119 10.9705C13.4765 11.4119 13.4519 11.7272 13.3545 12.0019C13.2443 12.314 13.0655 12.5976 12.8315 12.8318C12.5974 13.0659 12.314 13.2448 12.0019 13.3552C11.7272 13.4519 11.4119 13.4765 10.9705 13.5119L10.9025 13.5172C10.4752 13.5512 10.1692 13.6812 9.84921 13.9539L9.79654 13.9979C9.45988 14.2852 9.21921 14.4912 8.95654 14.6165C8.6578 14.7592 8.33093 14.8332 7.99988 14.8332C7.66882 14.8332 7.34195 14.7592 7.04321 14.6165C6.78054 14.4905 6.53988 14.2852 6.20321 13.9979L6.15054 13.9539C5.85988 13.6919 5.488 13.5377 5.09721 13.5172L5.02921 13.5119C4.58788 13.4765 4.27254 13.4519 3.99788 13.3545C3.68571 13.2443 3.40216 13.0655 3.168 12.8315C2.93383 12.5974 2.75498 12.314 2.64454 12.0019C2.54788 11.7272 2.52321 11.4119 2.48788 10.9705L2.48254 10.9025C2.46205 10.5118 2.30789 10.1399 2.04588 9.84921L2.00188 9.79654C1.71454 9.45988 1.50854 9.21921 1.38321 8.95654C1.24055 8.6578 1.1665 8.33093 1.1665 7.99988C1.1665 7.66882 1.24055 7.34195 1.38321 7.04321C1.50921 6.78054 1.71454 6.53988 2.00188 6.20321L2.04588 6.15054C2.30789 5.85988 2.46205 5.488 2.48254 5.09721L2.48788 5.02921C2.52321 4.58788 2.54788 4.27254 2.64521 3.99788C2.7555 3.68571 2.93421 3.40216 3.16825 3.168C3.4023 2.93383 3.68576 2.75498 3.99788 2.64454C4.27254 2.54788 4.58788 2.52321 5.02921 2.48788L5.09721 2.48254C5.488 2.46205 5.85988 2.30789 6.15054 2.04588L6.20254 2.00188C6.53988 1.71454 6.78054 1.50854 7.04321 1.38321ZM8.99988 5.33321C8.99992 5.24097 8.97444 5.15051 8.92627 5.07185C8.8781 4.99318 8.8091 4.92938 8.72692 4.88749C8.64473 4.84561 8.55256 4.82727 8.46061 4.83452C8.36865 4.84176 8.28049 4.8743 8.20588 4.92854L6.37254 6.26188C6.26522 6.33985 6.19326 6.45726 6.17251 6.58829C6.15176 6.71931 6.1839 6.85322 6.26188 6.96054C6.33985 7.06787 6.45726 7.13982 6.58829 7.16057C6.71931 7.18133 6.85322 7.14918 6.96054 7.07121L8.00054 6.31521V10.6665C8.00054 10.7992 8.05322 10.9263 8.14699 11.0201C8.24076 11.1139 8.36793 11.1665 8.50054 11.1665C8.63315 11.1665 8.76033 11.1139 8.8541 11.0201C8.94786 10.9263 9.00054 10.7992 9.00054 10.6665L8.99988 5.33321Z" fill="#ECE05B"/>
</svg>
