<svg width="20" height="19" viewBox="0 0 20 19" fill="currentColor"
  xmlns="http://www.w3.org/2000/svg">
  <path
    d="M9.99958 0C10.406 0 10.7728 0.245781 10.9263 0.62207L13.0416 5.80762L18.6343 6.22266C19.0393 6.25284 19.3859 6.52493 19.5113 6.91113C19.6367 7.29759 19.516 7.72221 19.2056 7.98438L14.9195 11.6025L16.2613 17.04C16.3587 17.4347 16.2072 17.8497 15.8785 18.0889C15.5497 18.328 15.1088 18.344 14.7633 18.1299L9.99958 15.1758L5.23689 18.1299C4.89137 18.3441 4.45042 18.328 4.12165 18.0889C3.79289 17.8497 3.64147 17.4347 3.73884 17.04L5.07966 11.6025L0.794503 7.98438C0.484084 7.72222 0.363464 7.29762 0.488838 6.91113C0.614254 6.52491 0.960836 6.25279 1.36579 6.22266L6.95759 5.80762L9.0738 0.62207L9.14118 0.487305C9.31957 0.188304 9.64417 0.000151425 9.99958 0ZM8.57575 7.1377C8.43239 7.48907 8.10262 7.72868 7.72419 7.75684L3.95564 8.03516L6.84528 10.4756C7.13582 10.721 7.26156 11.1103 7.17048 11.4795L6.26814 15.1367L9.47321 13.1504L9.59821 13.084C9.89691 12.9529 10.2446 12.9754 10.5269 13.1504L13.73 15.1357L12.8287 11.4795C12.7377 11.1103 12.8644 10.7209 13.1549 10.4756L16.0435 8.03516L12.2759 7.75684C11.8975 7.72872 11.5678 7.48909 11.4244 7.1377L9.99958 3.64746L8.57575 7.1377Z"
    fill="currentColor" />
</svg>