<svg width="24" height="24" viewBox="0 0 24 24" fill="currentColor"
  xmlns="http://www.w3.org/2000/svg">
  <path
    d="M12 3L14.35 8.76L20.56 9.22L15.8 13.24L17.29 19.28L12 16L6.71001 19.28L8.20001 13.24L3.44001 9.22L9.65001 8.76L12 3Z"
    fill="currentColor" />
  <path
    d="M11.9996 2C12.406 2 12.7728 2.24578 12.9263 2.62207L15.0416 7.80762L20.6343 8.22266C21.0393 8.25284 21.3859 8.52493 21.5113 8.91113C21.6367 9.2976 21.516 9.72221 21.2056 9.98438L16.9195 13.6025L18.2613 19.04C18.3587 19.4347 18.2072 19.8497 17.8785 20.0889C17.5497 20.328 17.1088 20.344 16.7633 20.1299L11.9996 17.1758L7.23689 20.1299C6.89137 20.3441 6.45042 20.328 6.12165 20.0889C5.79289 19.8497 5.64147 19.4347 5.73884 19.04L7.07966 13.6025L2.7945 9.98438C2.48408 9.72222 2.36346 9.29762 2.48884 8.91113C2.61425 8.52491 2.96084 8.25279 3.36579 8.22266L8.95759 7.80762L11.0738 2.62207L11.1412 2.4873C11.3196 2.1883 11.6442 2.00015 11.9996 2ZM10.5758 9.1377C10.4324 9.48907 10.1026 9.72868 9.72419 9.75684L5.95564 10.0352L8.84528 12.4756C9.13582 12.721 9.26156 13.1103 9.17048 13.4795L8.26814 17.1367L11.4732 15.1504L11.5982 15.084C11.8969 14.9529 12.2446 14.9754 12.5269 15.1504L15.73 17.1357L14.8287 13.4795C14.7377 13.1103 14.8644 12.7209 15.1549 12.4756L18.0435 10.0352L14.2759 9.75684C13.8975 9.72872 13.5678 9.48909 13.4244 9.1377L11.9996 5.64746L10.5758 9.1377Z"
    fill="currentColor" />
</svg>