<svg width="20" height="18" viewBox="0 0 20 18" fill="none" xmlns="http://www.w3.org/2000/svg">
<path d="M6.46193 0.59181C7.25206 0.593541 8.03469 0.750912 8.76369 1.05568C9.20773 1.24132 9.62627 1.48018 10.0117 1.76466C11.032 1.03832 12.2606 0.643475 13.5283 0.651381C15.1064 0.661268 16.6174 1.29248 17.7334 2.40822C18.8494 3.52404 19.4811 5.0352 19.4912 6.61329C19.5013 8.19134 18.8887 9.70985 17.7871 10.8399L12.1211 16.5068C11.5585 17.0693 10.7955 17.3858 10 17.3858C9.20459 17.3857 8.44145 17.0692 7.87892 16.5068L2.22169 10.8496C1.66239 10.2942 1.21716 9.63355 0.913099 8.90626C0.608334 8.17727 0.450962 7.39464 0.449232 6.60451C0.447561 5.81453 0.601824 5.03195 0.903334 4.30177C1.20491 3.57144 1.64833 2.90834 2.20704 2.34962C2.76576 1.79091 3.42887 1.34749 4.15919 1.04591C4.88937 0.744402 5.67195 0.590139 6.46193 0.59181ZM6.45802 2.59181C5.93137 2.59066 5.40966 2.69358 4.92286 2.89454C4.43598 3.09559 3.99358 3.39121 3.62111 3.76369C3.24863 4.13616 2.95302 4.57856 2.75197 5.06544C2.551 5.55224 2.44808 6.07395 2.44923 6.6006C2.45039 7.12735 2.55563 7.64879 2.7588 8.13478C2.93652 8.55984 3.18601 8.95066 3.49611 9.29005L3.63283 9.43263L3.63673 9.43556L9.29298 15.0928C9.48046 15.2802 9.73492 15.3857 10 15.3858C10.2651 15.3858 10.5195 15.2801 10.707 15.0928L16.3594 9.43947C17.0911 8.68657 17.4979 7.67604 17.4912 6.62599C17.4845 5.57404 17.0632 4.56712 16.3193 3.82326C15.5754 3.07937 14.5677 2.65797 13.5156 2.65138C12.4637 2.64488 11.4514 3.05368 10.6983 3.7881C10.3051 4.17121 9.67653 4.16528 9.29005 3.7754C8.91927 3.40141 8.47808 3.10453 7.9922 2.90138C7.50621 2.6982 6.98477 2.59297 6.45802 2.59181Z" fill="#2D336B"/>
</svg>
