<svg width="24" height="24" viewBox="0 0 24 24" fill="none" xmlns="http://www.w3.org/2000/svg">
<g clip-path="url(#clip0_1185_1962)">
<path d="M16.8 10.56C16.8 10.8146 16.6989 11.0588 16.5188 11.2388C16.3388 11.4189 16.0946 11.52 15.84 11.52H7.68C7.42539 11.52 7.18121 11.4189 7.00118 11.2388C6.82114 11.0588 6.72 10.8146 6.72 10.56C6.72 10.3054 6.82114 10.0612 7.00118 9.88118C7.18121 9.70114 7.42539 9.6 7.68 9.6H15.84C16.0946 9.6 16.3388 9.70114 16.5188 9.88118C16.6989 10.0612 16.8 10.3054 16.8 10.56ZM15.84 13.44H7.68C7.42539 13.44 7.18121 13.5411 7.00118 13.7212C6.82114 13.9012 6.72 14.1454 6.72 14.4C6.72 14.6546 6.82114 14.8988 7.00118 15.0788C7.18121 15.2589 7.42539 15.36 7.68 15.36H15.84C16.0946 15.36 16.3388 15.2589 16.5188 15.0788C16.6989 14.8988 16.8 14.6546 16.8 14.4C16.8 14.1454 16.6989 13.9012 16.5188 13.7212C16.3388 13.5411 16.0946 13.44 15.84 13.44ZM24 12C23.9965 15.1815 22.7311 18.2317 20.4814 20.4814C18.2317 22.7311 15.1815 23.9965 12 24H1.92C1.41078 24 0.922425 23.7977 0.562355 23.4376C0.202285 23.0776 0 22.5892 0 22.08V12C4.74244e-08 8.8174 1.26428 5.76515 3.51472 3.51472C5.76515 1.26428 8.8174 0 12 0C15.1826 0 18.2348 1.26428 20.4853 3.51472C22.7357 5.76515 24 8.8174 24 12ZM22.08 12C22.08 9.32662 21.018 6.76273 19.1276 4.87236C17.2373 2.982 14.6734 1.92 12 1.92C9.32662 1.92 6.76273 2.982 4.87236 4.87236C2.982 6.76273 1.92 9.32662 1.92 12V22.08H12C14.6725 22.0771 17.2347 21.0142 19.1245 19.1245C21.0142 17.2347 22.0771 14.6725 22.08 12Z" fill="#2D336B"/>
</g>
<defs>
<clipPath id="clip0_1185_1962">
<rect width="24" height="24" fill="white"/>
</clipPath>
</defs>
</svg>
